<svg width="169" height="57" viewBox="0 0 169 57" fill="none" xmlns="http://www.w3.org/2000/svg">
<g clip-path="url(#clip0_495_1045)">
<path fill-rule="evenodd" clip-rule="evenodd" d="M0 26.7624C40.6575 21.1518 72.821 0 72.821 0H59.6838C41.071 10.0398 20.8902 16.8503 0 20.1419V26.7624Z" fill="url(#paint0_linear_495_1045)"/>
<path fill-rule="evenodd" clip-rule="evenodd" d="M72.9335 56.0495C41.1663 33.495 34.2579 0 34.2579 0H27.4062C27.4062 0 32.9555 31.4191 62.1745 56.05L72.9335 56.0495Z" fill="url(#paint1_linear_495_1045)"/>
<path d="M0 32.5977V39.2177C4.6433 39.891 9.17341 40.7326 13.7035 41.7425C14.0435 39.5544 14.383 37.3662 14.6661 35.2342C9.82545 34.1064 4.93037 33.2264 0 32.5977ZM29.842 39.3864C26.9541 38.4326 24.0662 37.5911 21.122 36.8056C20.8389 38.9937 20.4991 41.1818 20.1594 43.3699C22.0846 43.8749 24.0666 44.4359 25.9918 45.0531C27.1805 43.0893 28.4829 41.2379 29.842 39.3864ZM62.1754 56.0498H52.549C46.0527 52.6675 39.3369 49.7247 32.4468 47.2412C33.6926 45.3336 34.995 43.4821 36.4106 41.6307C43.0961 44.1443 49.6204 47.0673 55.9466 50.3831C57.985 52.4029 60.0236 54.2544 62.1753 56.0498H62.1754Z" fill="url(#paint2_linear_495_1045)"/>
<path fill-rule="evenodd" clip-rule="evenodd" d="M43.7731 23.6771C42.0743 25.2481 40.4888 26.819 38.9031 28.5022C35.6256 31.928 32.5979 35.5842 29.8431 39.4428C28.4841 41.2943 27.1817 43.2019 25.9925 45.1656C23.7719 48.7068 21.7675 52.3791 19.9902 56.1623H27.3516C28.8853 53.1337 30.5867 50.1929 32.4479 47.3537C33.6937 45.4461 34.9961 43.5946 36.4117 41.7431C38.3429 39.1719 40.403 36.7002 42.584 34.3372C44.1129 32.654 45.6984 31.0272 47.3405 29.5121C52.4576 24.6162 58.0757 20.2723 64.1018 16.5521V8.86523C56.7477 12.9563 49.9209 17.9305 43.7731 23.6771Z" fill="url(#paint3_linear_495_1045)"/>
<path fill-rule="evenodd" clip-rule="evenodd" d="M17.6116 56.0495C21.9398 37.7011 23.5425 18.8154 22.3682 0H15.6863C18.0646 28.2772 10.7598 56.05 10.7598 56.05L17.6116 56.0495Z" fill="url(#paint4_linear_495_1045)"/>
<path fill-rule="evenodd" clip-rule="evenodd" d="M74.8851 18.2781C74.8953 18.4879 74.9334 18.6955 74.9983 18.8953C75.0789 19.0671 75.1948 19.22 75.3383 19.3441C75.5088 19.4706 75.7006 19.5656 75.9046 19.6246C76.384 19.7742 76.8975 19.7742 77.3768 19.6246C77.5808 19.5658 77.7726 19.471 77.9431 19.3446C78.1029 19.2366 78.2224 19.0788 78.2831 18.8958C78.3531 18.6973 78.3913 18.489 78.3963 18.2786C78.4092 18.1267 78.3899 17.9737 78.3397 17.8298C78.2989 17.6817 78.2209 17.5465 78.1132 17.437L77.7732 17.1004C77.626 16.9819 77.45 16.9045 77.2632 16.876C76.8513 16.8012 76.4293 16.8012 76.0174 16.876C75.8379 16.9269 75.6662 17.0024 75.5074 17.1004C75.3674 17.182 75.2504 17.2978 75.1674 17.437C75.0711 17.5548 74.9946 17.6874 74.9409 17.8298C74.8947 17.9745 74.8758 18.1265 74.8851 18.2781ZM75.2815 18.2781C75.2699 18.0417 75.3291 17.8073 75.4515 17.6048C75.559 17.4308 75.7171 17.2938 75.9045 17.2121C76.1327 17.0973 76.3853 17.0395 76.6406 17.0438C76.8967 17.0328 77.1509 17.0909 77.3767 17.2121C77.5628 17.296 77.7203 17.4325 77.8297 17.6048C77.9522 17.8073 78.0114 18.0417 77.9997 18.2781C78.0041 18.4959 77.9451 18.7104 77.8297 18.8953C77.7222 19.0692 77.5642 19.2063 77.3767 19.288C77.1486 19.4028 76.896 19.4605 76.6406 19.4563C76.3846 19.4673 76.1304 19.4091 75.9045 19.288C75.7028 19.2046 75.5267 19.0691 75.3945 18.8953C75.3194 18.6982 75.2812 18.489 75.2817 18.2781H75.2815ZM80.7742 19.6807H81.1706V17.0996H83.2657V19.6804H83.6621V16.8752H80.7742V19.6807ZM86.097 19.6807H88.7585V19.4563H86.4934V18.3903H88.5317V18.1659H86.4931V17.1559H88.7017V16.8759H86.0969L86.097 19.6807ZM91.3633 19.6807V18.5581H92.3259C92.4979 18.5673 92.6701 18.5483 92.8359 18.502C93.0059 18.4459 93.1191 18.4459 93.2323 18.3337C93.3526 18.2707 93.4512 18.1732 93.5155 18.0537C93.5864 17.9346 93.6254 17.7994 93.6287 17.6609C93.6244 17.4793 93.5651 17.3032 93.4587 17.156C93.3512 17.032 93.2152 16.9359 93.0623 16.876C92.8618 16.8066 92.6517 16.7687 92.4395 16.7637H90.9672V19.5681H91.3636L91.3633 19.6807ZM91.3633 17.0999H92.3825C92.5731 17.0878 92.7643 17.1067 92.9488 17.156C93.0652 17.1977 93.1647 17.2766 93.2319 17.3804C93.2947 17.4826 93.3334 17.5976 93.3452 17.717C93.36 17.8143 93.3399 17.9137 93.2885 17.9976C93.2239 18.067 93.1471 18.124 93.062 18.1659C92.9488 18.222 92.8355 18.222 92.722 18.2781H91.4196V17.0996L91.3633 17.0999ZM95.497 19.6807H95.8933L96.3464 18.783H98.0451L98.4981 19.6807H98.8945L97.3656 16.8755H96.9692L95.497 19.6807ZM96.4596 18.5586L97.1957 17.156L97.9317 18.5581L96.4596 18.5586ZM101.952 19.6807H102.349V17.1557H103.595V16.8757H100.707V17.1001H101.952V19.6807ZM106.199 19.6807L108.408 17.2681V19.6806H108.804V16.8752H108.351L106.143 19.3438V16.8752H105.746V19.6804L106.199 19.6807ZM112.768 19.6807C112.977 19.6925 113.187 19.6736 113.391 19.6246C113.561 19.5685 113.674 19.5685 113.787 19.4563C113.872 19.4144 113.949 19.3573 114.014 19.288C114.07 19.2319 114.07 19.1758 114.127 19.0636V18.8953C114.131 18.7291 114.07 18.5679 113.957 18.4464C113.788 18.3285 113.594 18.2516 113.391 18.222C113.617 18.1659 113.787 18.1098 113.844 17.9976C113.893 17.9557 113.934 17.9043 113.963 17.8465C113.992 17.7886 114.009 17.7255 114.014 17.6609C114.011 17.5398 113.971 17.4224 113.9 17.3243C113.844 17.2121 113.73 17.156 113.674 17.0999C113.553 17.0295 113.417 16.9909 113.278 16.9877C113.108 16.9877 112.994 16.9316 112.825 16.9316H111.296V19.7368H112.768V19.6807ZM111.579 18.3342H112.768C112.958 18.3221 113.15 18.341 113.334 18.3903C113.436 18.4335 113.531 18.4901 113.617 18.5586C113.698 18.6518 113.738 18.7726 113.731 18.8953C113.719 19.0146 113.68 19.1297 113.617 19.2319C113.531 19.3003 113.436 19.3569 113.334 19.4002C113.15 19.4527 112.959 19.4717 112.768 19.4563H111.579V18.3342ZM111.579 17.0999H112.994C113.09 17.113 113.184 17.1318 113.278 17.156C113.334 17.2121 113.448 17.2121 113.448 17.3243C113.499 17.4082 113.519 17.5075 113.504 17.6048C113.513 17.7018 113.493 17.7993 113.448 17.8854L113.278 18.0537C113.193 18.1046 113.092 18.1245 112.994 18.1098H111.522V17.0998L111.579 17.0999ZM116.789 19.6807V18.3339H119.054V19.6804H119.45V16.8752H119.054V18.0534H116.789V16.8752H116.392V19.6804L116.789 19.6807ZM121.432 19.6807H121.829L122.282 18.783H123.98L124.433 19.6807H124.83L123.301 16.8755H122.904L121.432 19.6807ZM122.451 18.5586L123.188 17.156L123.924 18.5586H122.451ZM128.567 19.6807H128.963V17.0996H131.059V19.6804H131.455V16.8752H128.567V19.6807ZM134.23 19.6807V18.5581H135.192C135.364 18.5673 135.536 18.5483 135.702 18.502C135.872 18.4459 135.985 18.4459 136.099 18.3337C136.219 18.2707 136.317 18.1732 136.382 18.0537C136.453 17.9347 136.492 17.7994 136.495 17.6609C136.491 17.4793 136.431 17.3032 136.325 17.156C136.217 17.032 136.081 16.9359 135.929 16.876C135.728 16.8066 135.518 16.7687 135.306 16.7637H133.834V19.5681H134.23L134.23 19.6807ZM134.23 17.0999H135.249C135.439 17.0878 135.631 17.1067 135.815 17.156C135.932 17.1977 136.031 17.2766 136.098 17.3804C136.161 17.4826 136.2 17.5976 136.212 17.717C136.226 17.8143 136.206 17.9137 136.155 17.9976C136.09 18.067 136.013 18.124 135.928 18.1659C135.815 18.222 135.702 18.222 135.588 18.2781H134.286V17.0996L134.23 17.0999ZM138.59 18.2781C138.6 18.4879 138.638 18.6955 138.703 18.8953C138.783 19.0671 138.899 19.22 139.043 19.3441C139.213 19.4706 139.405 19.5657 139.609 19.6246C140.088 19.7742 140.602 19.7742 141.081 19.6246C141.285 19.5658 141.477 19.471 141.648 19.3446C141.807 19.2366 141.927 19.0788 141.988 18.8958C142.058 18.6973 142.096 18.489 142.101 18.2786C142.114 18.1266 142.094 17.9737 142.044 17.8298C142.003 17.6817 141.925 17.5465 141.818 17.437L141.478 17.1004C141.33 16.9819 141.154 16.9045 140.968 16.876C140.556 16.8012 140.134 16.8012 139.722 16.876C139.542 16.9269 139.371 17.0024 139.212 17.1004C139.099 17.2126 138.929 17.3248 138.872 17.437C138.776 17.5547 138.699 17.6874 138.645 17.8298C138.646 17.9973 138.589 18.1095 138.589 18.2781H138.59ZM138.986 18.2781C138.974 18.0417 139.033 17.8073 139.156 17.6048C139.263 17.4308 139.421 17.2938 139.609 17.2121C139.837 17.0973 140.09 17.0395 140.345 17.0438C140.601 17.0328 140.855 17.0909 141.081 17.2121C141.267 17.296 141.425 17.4325 141.534 17.6048C141.657 17.8073 141.716 18.0417 141.704 18.2781C141.709 18.4959 141.649 18.7104 141.534 18.8953C141.427 19.0692 141.269 19.2063 141.081 19.288C140.852 19.3987 140.6 19.4563 140.345 19.4563C140.09 19.4563 139.838 19.3987 139.609 19.288C139.407 19.2046 139.231 19.0691 139.099 18.8953C139.024 18.6982 138.985 18.489 138.986 18.2781H138.986ZM144.875 17.0999H146.744V16.8755H144.479V19.6807H144.875V17.0999ZM149.292 19.6807V18.5581H150.254C150.426 18.5673 150.599 18.5483 150.764 18.502C150.934 18.4459 151.048 18.4459 151.161 18.3337C151.281 18.2707 151.38 18.1732 151.444 18.0537C151.515 17.9346 151.554 17.7994 151.557 17.6609C151.553 17.4793 151.494 17.3032 151.387 17.156C151.28 17.032 151.144 16.9359 150.991 16.876C150.79 16.8066 150.58 16.7687 150.368 16.7637H148.896V19.5681H149.292L149.292 19.6807ZM149.292 17.0999H150.311C150.502 17.0878 150.693 17.1067 150.877 17.156C150.994 17.1977 151.093 17.2766 151.16 17.3804C151.223 17.4826 151.262 17.5976 151.274 17.717C151.289 17.8143 151.268 17.9137 151.217 17.9976C151.152 18.067 151.076 18.124 150.991 18.1659C150.877 18.222 150.764 18.222 150.651 18.2781H149.348V17.0996L149.292 17.0999ZM153.426 19.6807H153.822L154.275 18.783H155.974L156.427 19.6807H156.823L155.294 16.8755H154.898L153.426 19.6807ZM154.388 18.5586L155.124 17.156L155.86 18.5586H154.388ZM159.371 19.6807V17.2118L160.73 19.6804H161.127L162.486 17.2118V19.6804H162.882V16.8752H162.259L160.957 19.3438L159.654 16.8752H159.032V19.6804L159.371 19.6807ZM164.807 19.6807H165.204L165.657 18.783H167.356L167.809 19.6807H168.205L166.676 16.8755H166.28L164.807 19.6807ZM165.77 18.5586L166.506 17.156L167.242 18.5581L165.77 18.5586Z" fill="#808184"/>
<path d="M75.6772 28.9378C75.563 28.9217 75.4465 28.9337 75.338 28.9728C75.2294 29.012 75.132 29.077 75.0543 29.1623C74.9082 29.4024 74.8119 29.6695 74.7711 29.9477L74.7145 30.3405H73.6953V27.9278H74.3181C74.5068 27.736 74.6544 27.5077 74.7518 27.2568C74.8491 27.006 74.8943 26.738 74.8844 26.4691V22.5978H79.7544V27.9278H80.4344V30.3404H79.4152L79.3586 29.9476C79.3548 29.6614 79.2551 29.3849 79.0754 29.1622C78.986 29.0765 78.8786 29.0119 78.761 28.9731C78.6435 28.9343 78.5188 28.9222 78.3959 28.9377L75.6772 28.9378ZM78.4518 23.6639H76.2434V26.1888C76.2447 26.6235 76.1271 27.0503 75.9034 27.4231C75.7635 27.6188 75.6122 27.8061 75.4504 27.9842H78.4515L78.4518 23.6639ZM84.0578 29.0501C83.6466 29.0696 83.2361 28.9994 82.8548 28.8444C82.4734 28.6894 82.1304 28.4533 81.8494 28.1524C81.2722 27.5063 80.9678 26.6617 81 25.7959C80.9581 24.9118 81.2628 24.0462 81.8494 23.3834C82.1384 23.0773 82.491 22.8382 82.8823 22.6831C83.2736 22.528 83.6942 22.4606 84.1144 22.4857C84.5256 22.4661 84.9361 22.5363 85.3175 22.6913C85.6989 22.8463 86.0419 23.0825 86.3228 23.3834C86.6123 23.6895 86.8369 24.0512 86.9828 24.4465C87.1288 24.8418 87.1932 25.2625 87.1722 25.6834C87.2042 26.583 86.9016 27.4626 86.3228 28.1521C85.7113 28.7313 84.9002 29.053 84.0578 29.0502V29.0501ZM82.3024 25.6837C82.2705 26.2179 82.4093 26.7484 82.6988 27.1986C82.8403 27.4298 83.0407 27.6191 83.2795 27.7473C83.5184 27.8755 83.787 27.9378 84.0578 27.9279C84.2998 27.9325 84.5392 27.8788 84.756 27.7714C84.9729 27.664 85.1607 27.506 85.3036 27.3108C85.6448 26.8403 85.8056 26.2628 85.7566 25.6837C85.7887 25.1411 85.6283 24.6047 85.3036 24.1689C85.1475 23.9925 84.9558 23.8513 84.741 23.7545C84.5262 23.6578 84.2934 23.6078 84.0578 23.6078C83.8223 23.6078 83.5894 23.6578 83.3747 23.7545C83.1599 23.8513 82.9681 23.9925 82.812 24.1689C82.461 24.5936 82.2795 25.1332 82.3024 25.6838V25.6837ZM88.0783 22.5979H92.7783V23.72H89.381V24.786H90.9099C91.4666 24.7469 92.0214 24.8844 92.4954 25.1788C92.7484 25.3631 92.9492 25.61 93.0782 25.8951C93.2072 26.1803 93.2601 26.4941 93.2315 26.8058C93.244 27.1293 93.1785 27.4511 93.0405 27.7441C92.9025 28.037 92.6962 28.2925 92.4388 28.489C92.0063 28.7872 91.4919 28.944 90.9665 28.9378H87.965V22.5978L88.0783 22.5979ZM91.8722 26.8619C91.8722 26.2448 91.4758 25.9081 90.6264 25.9081H89.4373V27.7596H90.7397C91.4758 27.8158 91.8722 27.4792 91.8722 26.862V26.8619ZM94.4204 28.9378V22.5978H97.0818C97.5766 22.5676 98.0692 22.6848 98.4974 22.9344C98.77 23.1298 98.9866 23.3931 99.1257 23.6983C99.2648 24.0035 99.3215 24.3398 99.2902 24.6737C99.3027 24.9972 99.2371 25.319 99.0992 25.612C98.9612 25.9049 98.7548 26.1604 98.4974 26.3569C98.0731 26.6718 97.553 26.8303 97.0252 26.8057H95.7794V28.9378H94.4204ZM96.742 23.72H95.7228V25.6278H96.742C97.4782 25.6278 97.8746 25.3478 97.8746 24.7301C97.8746 24.0568 97.4782 23.7201 96.742 23.7201V23.72ZM102.971 29.05C102.56 29.0695 102.149 28.9993 101.768 28.8443C101.387 28.6893 101.043 28.4532 100.763 28.1523C100.185 27.5062 99.8809 26.6616 99.9131 25.7958C99.8711 24.9117 100.176 24.0461 100.763 23.3833C101.051 23.0772 101.404 22.8381 101.795 22.683C102.187 22.5279 102.607 22.4605 103.028 22.4856C103.439 22.466 103.849 22.5362 104.231 22.6912C104.612 22.8462 104.955 23.0824 105.236 23.3833C105.525 23.6894 105.75 24.0511 105.896 24.4464C106.042 24.8417 106.106 25.2624 106.085 25.6833C106.117 26.5829 105.815 27.4625 105.236 28.152C104.624 28.7312 103.813 29.0529 102.971 29.0502L102.971 29.05ZM101.216 25.6836C101.184 26.2178 101.322 26.7484 101.612 27.1985C101.753 27.4297 101.954 27.619 102.193 27.7472C102.431 27.8754 102.7 27.9377 102.971 27.9278C103.213 27.9324 103.452 27.8787 103.669 27.7713C103.886 27.6639 104.074 27.5059 104.217 27.3107C104.558 26.8402 104.719 26.2627 104.67 25.6836C104.702 25.141 104.541 24.6046 104.217 24.1688C104.061 23.9924 103.869 23.8512 103.654 23.7544C103.439 23.6577 103.206 23.6077 102.971 23.6077C102.735 23.6077 102.503 23.6577 102.288 23.7544C102.073 23.8512 101.881 23.9924 101.725 24.1688C101.374 24.5936 101.193 25.1332 101.216 25.6838V25.6836Z" fill="#808184"/>
<path fill-rule="evenodd" clip-rule="evenodd" d="M110.275 22.5969L111.464 25.2339L111.634 25.7388L111.861 25.1217L112.88 22.5969H114.296L112.03 27.8149C111.93 28.1416 111.727 28.4273 111.452 28.6295C111.177 28.8317 110.843 28.9395 110.501 28.937H109.652V27.8149H109.935C110.388 27.8149 110.728 27.7027 110.841 27.4222L111.011 27.0295L108.746 22.541H110.275V22.5969Z" fill="#808184"/>
<path fill-rule="evenodd" clip-rule="evenodd" d="M116.279 28.9377H114.977V22.5977H120.299V28.9377H118.997V23.7197H116.279V28.9377Z" fill="#808184"/>
<path d="M121.545 28.9387V22.5987H124.206C124.701 22.5686 125.194 22.6857 125.622 22.9353C125.895 23.1307 126.111 23.3941 126.25 23.6993C126.389 24.0044 126.446 24.3407 126.415 24.6746C126.427 24.9982 126.362 25.32 126.224 25.613C126.086 25.9059 125.879 26.1614 125.622 26.3578C125.198 26.6728 124.678 26.8313 124.15 26.8066H122.847V28.9387H121.545ZM123.867 23.7209H122.847V25.6287H123.867C124.603 25.6287 124.999 25.3487 124.999 24.731C124.999 24.0577 124.603 23.721 123.867 23.721V23.7209ZM127.604 28.9387H126.188L128.453 22.5987H129.926L132.191 28.9387H130.775L130.322 27.5922H128L127.604 28.9387ZM128.397 26.5262H129.982L129.189 24.0576L128.397 26.5262ZM132.87 28.9387V22.5987H135.645C136.195 22.5498 136.747 22.6671 137.23 22.9353C137.428 23.0867 137.587 23.2822 137.695 23.5063C137.803 23.7303 137.858 23.9766 137.853 24.2253C137.841 24.5369 137.721 24.8345 137.513 25.0669C137.3 25.3219 136.995 25.483 136.664 25.5157C137.024 25.5154 137.369 25.6564 137.626 25.9084C137.765 26.0592 137.871 26.2363 137.939 26.4291C138.007 26.622 138.036 26.8265 138.023 27.0306C138.023 28.2649 137.287 28.882 135.814 28.882H132.87L132.87 28.9387ZM134.173 23.7209V25.1237H135.475C135.751 25.1563 136.029 25.0971 136.268 24.9553C136.353 24.8911 136.419 24.805 136.459 24.7062C136.499 24.6074 136.511 24.4996 136.494 24.3943C136.505 24.2976 136.49 24.1998 136.45 24.111C136.41 24.0222 136.347 23.9456 136.268 23.8893C136.026 23.7552 135.75 23.6966 135.475 23.721L134.173 23.7209ZM135.475 26.1896H134.173V27.8166H135.475C135.823 27.8479 136.174 27.79 136.494 27.6483C136.588 27.5766 136.664 27.4828 136.713 27.3752C136.762 27.2676 136.784 27.1494 136.777 27.0312C136.784 26.9049 136.762 26.7787 136.713 26.6621C136.664 26.5455 136.589 26.4415 136.494 26.3579C136.174 26.2164 135.823 26.1585 135.475 26.1897V26.1896Z" fill="#808184"/>
<path fill-rule="evenodd" clip-rule="evenodd" d="M140.685 22.5977H142.157L144.422 28.9377H143.006L141.421 24.0567L139.835 28.9377H138.42L140.685 22.5977Z" fill="#808184"/>
<path fill-rule="evenodd" clip-rule="evenodd" d="M145.045 28.9377V22.5977H149.632V23.7197H146.347V25.0667H149.349V26.1327H146.347V27.7597H149.802V28.8817H145.045V28.9377Z" fill="#808184"/>
<path fill-rule="evenodd" clip-rule="evenodd" d="M150.82 22.5977H152.122V25.0667H154.67V22.5977H155.973V28.9377H154.67V26.1887H152.122V28.9377H150.82V22.5977Z" fill="#808184"/>
<path fill-rule="evenodd" clip-rule="evenodd" d="M157.162 22.5977H158.464V27.4787L160.843 22.5977H162.428V28.9377H161.126V24.1687L158.748 28.9377H157.105V22.5977H157.162Z" fill="#808184"/>
<path fill-rule="evenodd" clip-rule="evenodd" d="M163.73 28.9377V22.5977H168.316V23.7197H165.032V25.0667H168.033V26.1327H165.032V27.7597H168.486V28.8817H163.73V28.9377Z" fill="#808184"/>
</g>
<defs>
<linearGradient id="paint0_linear_495_1045" x1="0.0062018" y1="13.3703" x2="72.8272" y2="13.3703" gradientUnits="userSpaceOnUse">
<stop stop-color="#008641"/>
<stop offset="0.12" stop-color="#008943"/>
<stop offset="0.21" stop-color="#009348"/>
<stop offset="0.3" stop-color="#00A450"/>
<stop offset="0.31" stop-color="#00A651"/>
<stop offset="0.88" stop-color="#00A651"/>
<stop offset="1" stop-color="#009247"/>
</linearGradient>
<linearGradient id="paint1_linear_495_1045" x1="50.1725" y1="-0.00103805" x2="50.1725" y2="56.0485" gradientUnits="userSpaceOnUse">
<stop stop-color="#D51920"/>
<stop offset="0.05" stop-color="#D81921"/>
<stop offset="0.09" stop-color="#E21B22"/>
<stop offset="0.11" stop-color="#ED1C24"/>
<stop offset="0.83" stop-color="#ED1C24"/>
<stop offset="0.91" stop-color="#CD161D"/>
<stop offset="0.96" stop-color="#B51218"/>
<stop offset="1" stop-color="#B51218"/>
</linearGradient>
<linearGradient id="paint2_linear_495_1045" x1="62.1714" y1="44.3426" x2="-0.00403577" y2="44.3426" gradientUnits="userSpaceOnUse">
<stop stop-color="#FFD400"/>
<stop offset="0.12" stop-color="#FFD400"/>
<stop offset="0.13" stop-color="#FFD400"/>
<stop offset="0.25" stop-color="#FFD800"/>
<stop offset="0.37" stop-color="#FFE400"/>
<stop offset="0.46" stop-color="#FFF200"/>
<stop offset="0.61" stop-color="#FFE900"/>
<stop offset="0.82" stop-color="#FFD400"/>
<stop offset="1" stop-color="#FFD400"/>
</linearGradient>
<linearGradient id="paint3_linear_495_1045" x1="19.5875" y1="55.714" x2="68.3849" y2="13.656" gradientUnits="userSpaceOnUse">
<stop stop-color="#02428D"/>
<stop offset="0.06" stop-color="#024490"/>
<stop offset="0.12" stop-color="#034A9A"/>
<stop offset="0.14" stop-color="#034EA2"/>
<stop offset="0.28" stop-color="#0256A7"/>
<stop offset="0.41" stop-color="#0062AF"/>
<stop offset="0.86" stop-color="#034EA2"/>
<stop offset="1" stop-color="#023F88"/>
</linearGradient>
<linearGradient id="paint4_linear_495_1045" x1="16.7449" y1="56.0485" x2="16.7449" y2="-0.00103899" gradientUnits="userSpaceOnUse">
<stop stop-color="#DCDDDE"/>
<stop offset="0.16" stop-color="#DFE0E1"/>
<stop offset="0.29" stop-color="#E9E9EA"/>
<stop offset="0.31" stop-color="#EBEBEC"/>
<stop offset="0.43" stop-color="#F2F2F3"/>
<stop offset="0.54" stop-color="white"/>
<stop offset="0.72" stop-color="white"/>
<stop offset="1" stop-color="#DCDDDE"/>
</linearGradient>
<clipPath id="clip0_495_1045">
<rect width="168.488" height="56.1619" fill="white"/>
</clipPath>
</defs>
</svg>
