<svg width="187" height="59" viewBox="0 0 187 59" fill="none" xmlns="http://www.w3.org/2000/svg">
<g clip-path="url(#clip0_495_995)">
<path fill-rule="evenodd" clip-rule="evenodd" d="M94.9746 23.8822V17.1602H99.8196V17.9532H95.8616V20.0112H99.5686V20.8002H95.8616V23.0892H99.9756V23.8822H94.9746Z" fill="#231F20"/>
<path fill-rule="evenodd" clip-rule="evenodd" d="M101.816 23.0622H103.484C103.686 23.0674 103.888 23.0566 104.088 23.03C104.268 23.002 104.442 22.9399 104.6 22.8468C104.743 22.754 104.86 22.6252 104.938 22.4732C105.029 22.2983 105.075 22.1034 105.07 21.9063C105.076 21.674 105.009 21.4459 104.878 21.2536C104.75 21.0677 104.562 20.9303 104.346 20.8636C104.027 20.7771 103.696 20.7393 103.365 20.7516H101.816V23.0622ZM101.816 19.9575H103.265C103.549 19.9687 103.834 19.9425 104.111 19.8797C104.313 19.8275 104.493 19.7098 104.621 19.5449C104.74 19.3728 104.8 19.1669 104.792 18.9579C104.796 18.7499 104.741 18.5451 104.632 18.3679C104.527 18.1999 104.365 18.0759 104.175 18.0191C103.841 17.9428 103.498 17.9115 103.156 17.9259H101.817L101.816 19.9575ZM100.93 23.8558V17.1322H103.444C103.864 17.1162 104.283 17.1858 104.675 17.3369C104.977 17.4657 105.231 17.6849 105.402 17.9641C105.572 18.2293 105.663 18.5373 105.665 18.8523C105.665 19.1394 105.584 19.4208 105.431 19.664C105.26 19.9318 105.016 20.145 104.727 20.2785C105.098 20.374 105.426 20.5883 105.663 20.8885C105.882 21.1817 105.997 21.54 105.989 21.9062C105.992 22.2105 105.924 22.5113 105.79 22.785C105.678 23.0292 105.51 23.2436 105.299 23.4109C105.079 23.5687 104.83 23.6816 104.566 23.743C104.211 23.8247 103.848 23.8625 103.484 23.8557L100.93 23.8558ZM107.862 20.329H109.595C110.027 20.3701 110.459 20.2562 110.814 20.0077C110.937 19.8929 111.033 19.7526 111.096 19.5965C111.158 19.4404 111.186 19.2725 111.176 19.1047C111.184 18.8476 111.109 18.5949 110.963 18.3829C110.83 18.1882 110.631 18.0475 110.403 17.9857C110.131 17.9351 109.854 17.915 109.576 17.9257H107.862L107.862 20.329ZM106.975 23.8556V17.1322H109.503C109.844 17.1253 110.185 17.1469 110.522 17.1966C110.818 17.2387 111.101 17.3461 111.35 17.5112C111.582 17.6774 111.767 17.9009 111.887 18.16C112.065 18.5454 112.128 18.9744 112.068 19.3949C112.007 19.8154 111.826 20.2092 111.546 20.5287C111.276 20.7557 110.962 20.9254 110.624 21.0275C110.286 21.1295 109.931 21.1618 109.58 21.1224H107.862V23.8554L106.975 23.8556ZM113.424 20.5949C113.385 21.2933 113.618 21.9797 114.075 22.5095C114.288 22.731 114.543 22.9072 114.825 23.0273C115.107 23.1475 115.411 23.2091 115.718 23.2085C116.024 23.2078 116.328 23.145 116.61 23.0237C116.891 22.9024 117.146 22.7252 117.357 22.5028C117.82 21.9411 118.051 21.2244 118.004 20.4983C118.015 20.0065 117.921 19.518 117.728 19.0654C117.559 18.6755 117.277 18.3452 116.918 18.1168C116.561 17.8908 116.145 17.7736 115.723 17.7794C115.423 17.7749 115.125 17.8299 114.847 17.9414C114.569 18.0529 114.316 18.2186 114.103 18.4288C113.85 18.7257 113.659 19.0706 113.543 19.4427C113.426 19.8149 113.386 20.2067 113.424 20.5949H113.424ZM112.509 20.5808C112.453 19.6237 112.775 18.6828 113.406 17.9608C113.702 17.648 114.062 17.4018 114.46 17.2385C114.859 17.0752 115.288 16.9985 115.719 17.0136C116.306 17.0055 116.885 17.1594 117.391 17.4583C117.884 17.7506 118.279 18.182 118.527 18.6983C118.795 19.2615 118.929 19.8792 118.918 20.5029C118.929 21.1369 118.788 21.7644 118.507 22.3329C118.252 22.8499 117.845 23.2764 117.341 23.5552C116.843 23.8303 116.283 23.9731 115.714 23.9698C115.118 23.9796 114.532 23.8208 114.023 23.5116C113.533 23.2131 113.14 22.7777 112.894 22.2591C112.639 21.7364 112.507 21.1621 112.509 20.5806" fill="#231F20"/>
<path fill-rule="evenodd" clip-rule="evenodd" d="M119.836 17.1309H125.106V23.8539H124.214V17.9249H120.722V23.8539H119.836V17.1309Z" fill="#231F20"/>
<path fill-rule="evenodd" clip-rule="evenodd" d="M126.338 23.8548V17.1328H131.183V17.9258H127.225V19.9848H130.931V20.7728H127.225V23.0618H131.339V23.8548H126.338Z" fill="#231F20"/>
<path fill-rule="evenodd" clip-rule="evenodd" d="M135.675 15.5314H136.238C136.214 15.867 136.065 16.1813 135.819 16.4114C135.558 16.6264 135.227 16.7362 134.889 16.7193C134.551 16.7365 134.218 16.6275 133.955 16.4134C133.708 16.1832 133.559 15.8677 133.537 15.5312H134.099C134.126 15.7114 134.216 15.8763 134.352 15.9968C134.499 16.1059 134.68 16.1603 134.862 16.1505C135.061 16.1642 135.258 16.1115 135.422 16.0005C135.561 15.8801 135.651 15.7133 135.675 15.5314ZM132.344 17.132H133.148V22.4559L136.713 17.132H137.604V23.8546H136.8V18.5446L133.23 23.8546H132.344L132.344 17.132ZM143.604 21.4976L144.49 21.7222C144.352 22.3755 143.999 22.9637 143.487 23.3934C142.982 23.785 142.356 23.9887 141.716 23.9696C141.098 23.9967 140.486 23.8428 139.954 23.5269C139.488 23.2141 139.127 22.767 138.921 22.2449C138.683 21.6741 138.563 21.0613 138.567 20.443C138.552 19.8092 138.689 19.181 138.966 18.6109C139.216 18.1079 139.614 17.6933 140.106 17.4228C140.603 17.1508 141.163 17.011 141.73 17.017C142.335 16.9966 142.93 17.1772 143.421 17.5308C143.891 17.8926 144.227 18.4009 144.376 18.9752L143.504 19.1818C143.394 18.7639 143.158 18.3904 142.827 18.1131C142.503 17.8808 142.11 17.763 141.712 17.7784C141.253 17.762 140.8 17.8921 140.42 18.15C140.076 18.3955 139.821 18.745 139.691 19.1469C139.551 19.563 139.48 19.9992 139.481 20.4383C139.47 20.9483 139.555 21.4559 139.73 21.9349C139.872 22.3325 140.145 22.67 140.505 22.8916C140.847 23.1004 141.241 23.21 141.643 23.2082C142.101 23.2215 142.55 23.0683 142.904 22.7769C143.275 22.4418 143.522 21.9908 143.604 21.4976H143.604ZM145.363 17.1318H146.249V20.0762C146.554 20.1068 146.858 20.0225 147.104 19.84C147.376 19.4992 147.589 19.1156 147.735 18.705C147.862 18.3816 148.016 18.0692 148.194 17.7711C148.326 17.5792 148.503 17.4221 148.708 17.3129C148.933 17.1885 149.187 17.1245 149.444 17.1271C149.786 17.1271 149.965 17.1302 149.983 17.1365V17.9065C149.953 17.9065 149.893 17.9052 149.806 17.9018C149.708 17.8992 149.649 17.8978 149.627 17.8978C149.514 17.8884 149.399 17.9018 149.291 17.9372C149.183 17.9726 149.083 18.0292 148.997 18.1038C148.785 18.366 148.622 18.6644 148.517 18.9846C148.391 19.3741 148.198 19.7382 147.945 20.06C147.783 20.2126 147.594 20.3332 147.387 20.4155C147.947 20.6456 148.402 21.0731 148.667 21.617L150.048 23.8543H148.946L147.827 22.0296C147.615 21.6513 147.355 21.3019 147.054 20.9904C146.832 20.7973 146.544 20.6965 146.25 20.7087V23.8544H145.363L145.363 17.1318Z" fill="#231F20"/>
<path fill-rule="evenodd" clip-rule="evenodd" d="M150.582 17.1309H151.386V22.4559L154.951 17.1309H155.843V23.8539H155.038V18.5439L151.468 23.8539H150.582V17.1309Z" fill="#231F20"/>
<path fill-rule="evenodd" clip-rule="evenodd" d="M164.21 21.497L165.096 21.7217C164.958 22.3749 164.605 22.9631 164.093 23.3928C163.588 23.7844 162.961 23.9881 162.322 23.969C161.704 23.9961 161.092 23.8423 160.56 23.5263C160.093 23.2136 159.733 22.7665 159.527 22.2443C159.289 21.6735 159.169 21.0607 159.173 20.4424C159.158 19.8086 159.295 19.1804 159.572 18.6103C159.822 18.1073 160.219 17.6928 160.711 17.4222C161.209 17.1502 161.768 17.0105 162.335 17.0164C162.941 16.996 163.535 17.1767 164.027 17.5302C164.497 17.8921 164.833 18.4003 164.982 18.9746L164.109 19.1812C164 18.7634 163.764 18.3899 163.433 18.1125C163.108 17.8802 162.716 17.7625 162.317 17.7778C161.858 17.7614 161.406 17.8915 161.026 18.1494C160.682 18.3949 160.427 18.7444 160.297 19.1463C160.157 19.5624 160.086 19.9986 160.087 20.4377C160.076 20.9477 160.161 21.4553 160.336 21.9343C160.478 22.332 160.751 22.6694 161.111 22.891C161.453 23.0999 161.847 23.2095 162.249 23.2076C162.707 23.2209 163.156 23.0677 163.51 22.7763C163.881 22.4412 164.128 21.9902 164.21 21.497ZM167.837 23.0975H169.46C169.884 23.132 170.307 23.0332 170.671 22.815C170.802 22.707 170.904 22.5691 170.969 22.413C171.034 22.2569 171.061 22.0873 171.046 21.9188C171.054 21.6658 170.976 21.4176 170.824 21.2151C170.679 21.0258 170.471 20.8954 170.237 20.8481C169.836 20.7824 169.429 20.7555 169.022 20.7676H167.838L167.837 23.0975ZM164.912 17.1308H167.837V20.0021H169.441C169.808 19.9522 170.181 19.9786 170.537 20.0797C170.892 20.1807 171.224 20.3541 171.509 20.5891C171.828 20.955 172.003 21.424 172.001 21.9091C172.009 22.1684 171.962 22.4264 171.864 22.6665C171.766 22.9067 171.619 23.1238 171.432 23.3038C170.88 23.7254 170.188 23.9219 169.496 23.8538H166.95V17.9238H164.912L164.912 17.1308ZM175.904 20.5247C175.86 21.2324 176.067 21.933 176.489 22.503C176.681 22.7243 176.918 22.9018 177.185 23.0234C177.451 23.1449 177.741 23.2077 178.034 23.2076C178.327 23.2074 178.617 23.1442 178.883 23.0223C179.15 22.9003 179.387 22.7226 179.579 22.501C180.002 21.9117 180.207 21.1936 180.159 20.4697C180.199 19.7645 179.997 19.0667 179.588 18.4913C179.397 18.2643 179.158 18.082 178.889 17.9572C178.62 17.8324 178.327 17.7681 178.031 17.7689C177.734 17.7698 177.441 17.8357 177.173 17.962C176.905 18.0883 176.667 18.2719 176.478 18.5C176.064 19.091 175.862 19.8045 175.904 20.5248V20.5247ZM172.837 17.1308H173.723V20.1483H175.012C175.033 19.2985 175.366 18.4862 175.949 17.8674C176.219 17.5897 176.544 17.3708 176.903 17.2244C177.261 17.078 177.647 17.0074 178.034 17.0168C178.441 17.0062 178.846 17.0834 179.221 17.2431C179.596 17.4028 179.933 17.6414 180.207 17.9426C180.809 18.637 181.118 19.538 181.069 20.4556C181.124 21.3948 180.816 22.3194 180.209 23.0377C179.931 23.3421 179.591 23.583 179.211 23.7437C178.832 23.9044 178.422 23.9812 178.01 23.9688C177.636 23.9792 177.263 23.9132 176.914 23.7748C176.566 23.6364 176.249 23.4285 175.984 23.1638C175.412 22.5581 175.074 21.7689 175.03 20.9372H173.723V23.8541H172.837L172.837 17.1308ZM181.666 21.9554L182.512 21.7354C182.595 22.1013 182.772 22.4394 183.025 22.7169C183.161 22.8771 183.331 23.0045 183.523 23.0894C183.715 23.1743 183.924 23.2144 184.134 23.2069C184.536 23.2298 184.933 23.1005 185.245 22.8446C185.373 22.7376 185.476 22.6037 185.546 22.4523C185.616 22.3009 185.652 22.1359 185.651 21.9691C185.657 21.798 185.621 21.6282 185.546 21.4744C185.471 21.3205 185.36 21.1873 185.221 21.0863C184.878 20.8506 184.467 20.7353 184.051 20.7583H183.627V19.9834C183.941 19.991 184.254 19.9672 184.564 19.9123C184.79 19.8586 184.991 19.7308 185.137 19.5494C185.299 19.367 185.387 19.1312 185.386 18.8873C185.387 18.7428 185.357 18.5999 185.298 18.4678C185.239 18.3358 185.153 18.2177 185.046 18.1212C184.794 17.895 184.463 17.778 184.125 17.7958C183.817 17.7865 183.514 17.8758 183.259 18.0507C183.024 18.214 182.85 18.4509 182.763 18.7242C182.688 18.9252 182.642 19.136 182.626 19.3501L181.776 19.1576C181.782 18.8594 181.849 18.5655 181.972 18.294C182.095 18.0224 182.273 17.7789 182.494 17.5784C182.714 17.3779 182.974 17.2247 183.256 17.128C183.538 17.0313 183.837 16.9933 184.134 17.0163C184.706 16.9858 185.266 17.1829 185.693 17.5644C185.874 17.7251 186.019 17.9223 186.119 18.1432C186.218 18.3641 186.269 18.6035 186.269 18.8457C186.273 19.1473 186.192 19.4439 186.035 19.7017C185.878 19.9595 185.652 20.1682 185.383 20.3041C185.735 20.4041 186.044 20.6183 186.262 20.9129C186.479 21.2076 186.592 21.5661 186.584 21.9322C186.588 22.2087 186.53 22.4826 186.414 22.7337C186.299 22.9848 186.128 23.2068 185.915 23.3833C185.416 23.7917 184.783 24.0002 184.139 23.9683C183.553 23.9904 182.978 23.7982 182.523 23.4277C182.068 23.0572 181.764 22.5337 181.667 21.955" fill="#231F20"/>
<path fill-rule="evenodd" clip-rule="evenodd" d="M94.9746 36.5375V29.8145H99.8196V30.6075H95.8616V32.6665H99.5686V33.4555H95.8616V35.7435H99.9756V36.5375H94.9746Z" fill="#231F20"/>
<path fill-rule="evenodd" clip-rule="evenodd" d="M101.816 35.7437H103.484C103.686 35.7489 103.888 35.7381 104.088 35.7115C104.268 35.6836 104.442 35.6214 104.6 35.5283C104.743 35.4355 104.86 35.3067 104.938 35.1547C105.029 34.9798 105.075 34.7849 105.07 34.5878C105.076 34.3556 105.009 34.1274 104.878 33.9351C104.75 33.7492 104.562 33.6119 104.346 33.5451C104.027 33.4586 103.696 33.4209 103.365 33.4331H101.816V35.7437ZM101.816 32.639H103.265C103.549 32.6502 103.834 32.6241 104.111 32.5612C104.313 32.5091 104.493 32.3913 104.621 32.2264C104.74 32.0544 104.8 31.8484 104.792 31.6394C104.797 31.4315 104.741 31.2266 104.632 31.0494C104.527 30.8814 104.365 30.7573 104.175 30.7005C103.841 30.6243 103.498 30.5929 103.156 30.6073H101.817L101.816 32.639ZM100.93 36.5373V29.8141H103.444C103.864 29.7981 104.283 29.8677 104.675 30.0187C104.977 30.1476 105.231 30.3667 105.402 30.6459C105.572 30.9112 105.663 31.2192 105.665 31.5341C105.665 31.8212 105.584 32.1026 105.431 32.3458C105.26 32.6136 105.016 32.8269 104.727 32.9603C105.098 33.0559 105.426 33.2701 105.663 33.5703C105.882 33.8636 105.997 34.2218 105.989 34.588C105.992 34.8923 105.924 35.1931 105.79 35.4668C105.678 35.711 105.51 35.9254 105.299 36.0927C105.079 36.2506 104.83 36.3635 104.566 36.4248C104.211 36.5065 103.848 36.5444 103.484 36.5375L100.93 36.5373ZM107.862 33.0105H109.595C110.027 33.0516 110.459 32.9377 110.814 32.6892C110.937 32.5745 111.033 32.4341 111.096 32.278C111.158 32.122 111.186 31.9541 111.176 31.7862C111.184 31.5292 111.109 31.2764 110.963 31.0644C110.83 30.8698 110.631 30.729 110.403 30.6672C110.131 30.6166 109.854 30.5965 109.576 30.6072H107.862L107.862 33.0105ZM106.975 36.5372V29.8139H109.503C109.844 29.8071 110.185 29.8286 110.522 29.8783C110.818 29.9204 111.101 30.0279 111.35 30.193C111.582 30.3591 111.767 30.5827 111.887 30.8417C112.065 31.2272 112.128 31.6562 112.068 32.0766C112.007 32.4971 111.826 32.891 111.546 33.2104C111.276 33.4374 110.962 33.6072 110.624 33.7092C110.286 33.8113 109.931 33.8436 109.58 33.8041H107.862V36.5372H106.975ZM113.424 33.2765C113.385 33.975 113.618 34.6614 114.075 35.1912C114.288 35.4127 114.543 35.5889 114.825 35.709C115.107 35.8292 115.411 35.8908 115.718 35.8902C116.024 35.8896 116.328 35.8267 116.61 35.7054C116.891 35.5841 117.146 35.4069 117.357 35.1845C117.82 34.6229 118.051 33.9061 118.004 33.18C118.015 32.6882 117.921 32.1997 117.728 31.7471C117.559 31.3572 117.277 31.0269 116.918 30.7985C116.561 30.5726 116.145 30.4554 115.723 30.4611C115.423 30.4566 115.126 30.5117 114.847 30.6231C114.569 30.7346 114.316 30.9002 114.103 31.1104C113.85 31.4074 113.659 31.7523 113.543 32.1244C113.426 32.4966 113.386 32.8885 113.424 33.2766L113.424 33.2765ZM112.509 33.2625C112.453 32.3054 112.775 31.3646 113.406 30.6425C113.702 30.3297 114.062 30.0835 114.46 29.9202C114.859 29.7569 115.288 29.6802 115.719 29.6952C116.306 29.6872 116.885 29.8411 117.391 30.14C117.884 30.4323 118.279 30.8637 118.527 31.38C118.795 31.9432 118.929 32.5609 118.918 33.1846C118.929 33.8187 118.788 34.4461 118.507 35.0146C118.252 35.5316 117.845 35.9582 117.341 36.2369C116.843 36.512 116.283 36.6547 115.714 36.6514C115.118 36.6613 114.532 36.5024 114.023 36.1932C113.533 35.8948 113.14 35.4594 112.894 34.9408C112.639 34.4182 112.507 33.8439 112.509 33.2623" fill="#231F20"/>
<path fill-rule="evenodd" clip-rule="evenodd" d="M119.836 29.8145H125.106V36.5375H124.214V30.6085H120.722V36.5375H119.836V29.8145Z" fill="#231F20"/>
<path fill-rule="evenodd" clip-rule="evenodd" d="M126.338 36.5375V29.8145H131.183V30.6075H127.225V32.6665H130.931V33.4555H127.225V35.7435H131.339V36.5375H126.338Z" fill="#231F20"/>
<path fill-rule="evenodd" clip-rule="evenodd" d="M135.675 28.213H136.238C136.214 28.5486 136.065 28.863 135.819 29.093C135.559 29.308 135.227 29.4179 134.889 29.401C134.551 29.4182 134.217 29.3092 133.955 29.095C133.708 28.8648 133.559 28.5494 133.537 28.2129H134.099C134.126 28.3931 134.216 28.558 134.352 28.6785C134.499 28.7876 134.68 28.8419 134.862 28.8321C135.061 28.8459 135.258 28.7931 135.422 28.6821C135.561 28.5617 135.651 28.3949 135.675 28.213ZM132.344 29.8136H133.148V35.1375L136.713 29.8136H137.604V36.5362H136.8V31.2262L133.23 36.5362H132.344L132.344 29.8136ZM143.604 34.1792L144.49 34.404C144.352 35.0572 143.999 35.6454 143.487 36.075C142.982 36.4667 142.356 36.6704 141.716 36.6513C141.098 36.6785 140.486 36.5246 139.954 36.2085C139.488 35.8958 139.127 35.4487 138.921 34.9266C138.683 34.3558 138.563 33.743 138.567 33.1247C138.552 32.4909 138.689 31.8628 138.966 31.2926C139.216 30.7896 139.614 30.375 140.106 30.1045C140.603 29.8325 141.162 29.6927 141.73 29.6986C142.335 29.6782 142.93 29.8589 143.421 30.2125C143.891 30.5744 144.227 31.0826 144.376 31.6568L143.504 31.8635C143.394 31.4456 143.158 31.0721 142.827 30.7948C142.503 30.5625 142.11 30.4448 141.712 30.4601C141.253 30.4437 140.8 30.5738 140.42 30.8317C140.076 31.0772 139.821 31.4267 139.691 31.8286C139.551 32.2447 139.48 32.681 139.481 33.12C139.47 33.63 139.555 34.1376 139.73 34.6166C139.872 35.0143 140.145 35.3517 140.505 35.5733C140.847 35.7822 141.241 35.8918 141.643 35.8899C142.102 35.9032 142.55 35.75 142.904 35.4585C143.276 35.1235 143.522 34.6725 143.604 34.1792H143.604ZM145.363 29.8135H146.249V32.7578C146.554 32.7885 146.858 32.7042 147.104 32.5217C147.376 32.1809 147.589 31.7973 147.735 31.3866C147.862 31.0632 148.016 30.7509 148.194 30.4528C148.326 30.2609 148.503 30.1038 148.708 29.9946C148.933 29.8703 149.187 29.8063 149.444 29.8088C149.786 29.8088 149.965 29.8119 149.983 29.8182V30.5882C149.953 30.5882 149.893 30.5869 149.806 30.5835C149.708 30.5808 149.649 30.5794 149.627 30.5795C149.514 30.5702 149.399 30.5836 149.291 30.6189C149.183 30.6543 149.083 30.7109 148.997 30.7854C148.785 31.0477 148.622 31.3461 148.517 31.6663C148.391 32.0558 148.198 32.4199 147.945 32.7416C147.783 32.8942 147.594 33.0149 147.387 33.0972C147.947 33.3272 148.402 33.7548 148.667 34.2987L150.048 36.536H148.946L147.827 34.7112C147.615 34.3329 147.355 33.9837 147.054 33.6721C146.832 33.4789 146.544 33.3781 146.25 33.3903V36.536H145.363L145.363 29.8135Z" fill="#231F20"/>
<path fill-rule="evenodd" clip-rule="evenodd" d="M150.582 29.8145H151.386V35.1395L154.951 29.8145H155.843V36.5375H155.038V31.2265L151.468 36.5375H150.582V29.8145Z" fill="#231F20"/>
<path fill-rule="evenodd" clip-rule="evenodd" d="M99.7373 44.4437L100.624 44.6684C100.485 45.3217 100.132 45.9099 99.6209 46.3395C99.1152 46.731 98.4891 46.9347 97.8498 46.9157C97.2319 46.9431 96.6196 46.7892 96.088 46.473C95.6213 46.1606 95.261 45.7135 95.055 45.1911C94.8165 44.6205 94.6959 44.0075 94.7003 43.3891C94.6854 42.7552 94.8226 42.127 95.1003 41.557C95.3495 41.0541 95.7465 40.6395 96.2382 40.3689C96.7362 40.0969 97.2956 39.9572 97.863 39.9631C98.4681 39.9427 99.063 40.1234 99.5545 40.4769C100.024 40.8389 100.36 41.3471 100.509 41.9213L99.6368 42.1279C99.5277 41.71 99.2912 41.3365 98.9601 41.0592C98.6358 40.8269 98.2435 40.7091 97.8449 40.7245C97.386 40.7081 96.9338 40.8382 96.5538 41.0961C96.2099 41.3414 95.9541 41.6909 95.8244 42.093C95.6848 42.5092 95.6138 42.9454 95.6144 43.3844C95.6037 43.8944 95.6882 44.402 95.8638 44.8811C96.0056 45.2787 96.2787 45.6162 96.6381 45.8377C96.9807 46.0466 97.3747 46.1563 97.776 46.1543C98.2349 46.1675 98.683 46.0143 99.0377 45.723C99.4091 45.3881 99.6557 44.937 99.7371 44.4437H99.7373ZM101.921 43.5402C101.882 44.2386 102.115 44.925 102.572 45.4548C102.784 45.6763 103.039 45.8525 103.322 45.9727C103.604 46.0929 103.908 46.1545 104.215 46.1539C104.521 46.1533 104.825 46.0904 105.107 45.9691C105.389 45.8477 105.643 45.6705 105.854 45.4481C106.316 44.8862 106.548 44.1696 106.501 43.4436C106.512 42.9517 106.417 42.4631 106.224 42.0107C106.055 41.6208 105.773 41.2904 105.415 41.0621C105.058 40.8362 104.642 40.719 104.22 40.7247C103.92 40.7202 103.622 40.7753 103.344 40.8867C103.066 40.9982 102.813 41.1639 102.6 41.3741C102.347 41.6709 102.156 42.0158 102.039 42.388C101.923 42.7601 101.882 43.152 101.921 43.5402ZM101.007 43.5261C100.951 42.5691 101.273 41.6284 101.903 40.9061C102.199 40.5933 102.559 40.3472 102.957 40.1839C103.356 40.0206 103.785 39.9439 104.216 39.9589C104.803 39.9507 105.382 40.1046 105.888 40.4037C106.381 40.6965 106.776 41.1278 107.024 41.6437C107.292 42.2071 107.425 42.8246 107.415 43.4482C107.426 44.0822 107.285 44.7097 107.004 45.2782C106.749 45.7952 106.342 46.2217 105.838 46.5005C105.34 46.7756 104.78 46.9184 104.211 46.9151C103.615 46.925 103.029 46.7662 102.52 46.4569C102.03 46.1582 101.637 45.7229 101.391 45.2044C101.136 44.6816 101.005 44.1074 101.007 43.5259" fill="#231F20"/>
<path fill-rule="evenodd" clip-rule="evenodd" d="M108.328 40.0781H109.215V46.0071H112.707V40.0781H113.599V46.0071H114.211V48.6671H113.425V46.8001H108.328V40.0781Z" fill="#231F20"/>
<path fill-rule="evenodd" clip-rule="evenodd" d="M115.027 40.0781H115.831V45.4021L119.396 40.0781H120.287V46.8001H119.483V41.4901L115.913 46.8001H115.027V40.0781Z" fill="#231F20"/>
<path fill-rule="evenodd" clip-rule="evenodd" d="M122.705 44.0398H124.976L124.278 42.1782C124.064 41.6127 123.905 41.1478 123.802 40.7835C123.715 41.2204 123.594 41.6499 123.441 42.0682L122.705 44.0398ZM120.771 46.8008L123.345 40.0783H124.3L127.042 46.8008H126.032L125.25 44.7648H122.449L121.713 46.8008H120.771ZM128.211 40.0781H132.407V46.8007H131.52V40.8708H129.098V44.3331C129.112 44.8501 129.079 45.3673 129 45.8784C128.953 46.1725 128.807 46.4417 128.587 46.6419C128.363 46.8288 128.078 46.9261 127.787 46.9149C127.549 46.9087 127.312 46.8717 127.083 46.8049L127.234 46.0166C127.352 46.0707 127.479 46.1017 127.609 46.1079C127.698 46.1131 127.786 46.0948 127.865 46.0549C127.945 46.015 128.012 45.9548 128.061 45.8805C128.195 45.5407 128.247 45.1741 128.212 44.8105L128.211 40.0781Z" fill="#231F20"/>
<path fill-rule="evenodd" clip-rule="evenodd" d="M133.65 46.8011V40.0781H138.495V40.8711H134.537V42.9301H138.244V43.7191H134.537V46.0071H138.651V46.8011H133.65Z" fill="#231F20"/>
<path fill-rule="evenodd" clip-rule="evenodd" d="M139.668 46.8011V40.0781H140.555V42.8391H144.038V40.0781H144.924V46.8011H144.038V43.6321H140.555V46.8011H139.668Z" fill="#231F20"/>
<path fill-rule="evenodd" clip-rule="evenodd" d="M151.787 41.6463V45.1682C152.284 45.1698 152.764 44.9922 153.14 44.6682C153.456 44.327 153.632 43.8795 153.634 43.4145C153.636 42.9495 153.463 42.5007 153.149 42.1572C152.771 41.8287 152.288 41.6473 151.787 41.6463ZM150.955 41.651C150.465 41.6521 149.991 41.8256 149.616 42.141C149.443 42.3012 149.307 42.4978 149.219 42.7166C149.13 42.9355 149.091 43.1712 149.104 43.4069C149.092 43.6411 149.131 43.8752 149.218 44.093C149.305 44.3107 149.438 44.507 149.609 44.6681C149.984 44.9887 150.462 45.1643 150.955 45.1632V41.651ZM150.955 40.8849V40.0228H151.787V40.8849C152.532 40.8881 153.25 41.1632 153.807 41.6584C154.047 41.8808 154.238 42.1518 154.365 42.4533C154.493 42.7548 154.555 43.0799 154.548 43.4073C154.554 43.7307 154.493 44.0518 154.37 44.3508C154.246 44.6497 154.063 44.9202 153.831 45.1454C153.272 45.6545 152.543 45.936 151.787 45.9344V46.8011H150.956V45.9344C150.232 45.9287 149.532 45.6718 148.976 45.2078C148.727 44.979 148.528 44.701 148.392 44.3914C148.256 44.0818 148.186 43.7472 148.186 43.409C148.185 43.0708 148.255 42.7362 148.391 42.4264C148.527 42.1166 148.726 41.8384 148.974 41.6094C149.532 41.1476 150.232 40.8918 150.955 40.8849ZM156.06 43.5402C156.021 44.2386 156.254 44.925 156.711 45.4548C156.923 45.6763 157.178 45.8525 157.461 45.9727C157.743 46.0929 158.047 46.1545 158.353 46.1539C158.66 46.1533 158.964 46.0904 159.246 45.9691C159.527 45.8477 159.782 45.6705 159.993 45.4481C160.455 44.8864 160.687 44.1697 160.64 43.4436C160.651 42.9518 160.557 42.4633 160.364 42.0107C160.195 41.6208 159.912 41.2905 159.554 41.0621C159.197 40.8361 158.781 40.7189 158.358 40.7247C158.059 40.7202 157.761 40.7753 157.483 40.8867C157.205 40.9982 156.952 41.1639 156.738 41.3741C156.486 41.671 156.295 42.0159 156.179 42.388C156.062 42.7602 156.022 43.152 156.06 43.5402H156.06ZM155.146 43.5261C155.09 42.5691 155.411 41.6282 156.042 40.9061C156.338 40.5933 156.698 40.3472 157.096 40.1839C157.495 40.0206 157.924 39.9439 158.354 39.9589C158.942 39.9508 159.521 40.1047 160.027 40.4037C160.52 40.6959 160.915 41.1274 161.163 41.6437C161.431 42.2069 161.565 42.8245 161.554 43.4482C161.565 44.0822 161.424 44.7097 161.143 45.2782C160.888 45.7952 160.481 46.2217 159.976 46.5005C159.479 46.7756 158.919 46.9184 158.35 46.9151C157.754 46.9249 157.168 46.7661 156.659 46.4569C156.168 46.1584 155.776 45.723 155.53 45.2044C155.275 44.6816 155.144 44.1074 155.146 43.5259" fill="#231F20"/>
<path fill-rule="evenodd" clip-rule="evenodd" d="M162.49 46.8011V40.0781H163.377V42.8391H166.86V40.0781H167.746V46.8011H166.86V43.6321H163.377V46.8011H162.49Z" fill="#231F20"/>
<path fill-rule="evenodd" clip-rule="evenodd" d="M172.786 40.8717H170.451V41.2158C170.451 41.7874 170.4 42.5692 170.298 43.5611C170.233 44.4041 170.03 45.2307 169.697 46.0077H172.787L172.786 40.8717ZM169.596 40.0781H173.673V46.0081H174.276V48.3701H173.485V46.8017H169.057V48.3701H168.266V46.0081H168.787C169.326 45.1917 169.596 43.5423 169.596 41.0599V40.0781Z" fill="#231F20"/>
<path fill-rule="evenodd" clip-rule="evenodd" d="M0 58.269H88.429V0H0V58.269Z" fill="#044DA1"/>
<path fill-rule="evenodd" clip-rule="evenodd" d="M42.3305 12.6967L44.1965 11.3507L46.0635 12.6967L45.3525 10.5197L47.2475 9.1737H44.9115L44.1965 6.9707L43.4815 9.1767L41.1465 9.1737L43.0415 10.5197L42.3305 12.6967Z" fill="#FFF100"/>
<path fill-rule="evenodd" clip-rule="evenodd" d="M32.6733 15.2593L34.5393 13.9132L36.4043 15.2593L35.6953 13.0823L37.5893 11.7363H35.2533L34.5383 9.53125L33.8233 11.7393L31.4883 11.7363L33.3823 13.0823L32.6733 15.2593Z" fill="#FFF100"/>
<path fill-rule="evenodd" clip-rule="evenodd" d="M27.4738 16.5312L26.7598 18.7393L24.4238 18.7372L26.3178 20.0833L25.6078 22.2593L27.4738 20.9132L29.3398 22.2593L28.6308 20.0833L30.5248 18.7372H28.1888L27.4738 16.5312Z" fill="#FFF100"/>
<path fill-rule="evenodd" clip-rule="evenodd" d="M24.8811 30.4465L26.7461 31.7925L26.0371 29.6155L27.9311 28.2695H25.5961L24.8811 26.0645L24.1671 28.2735L21.8301 28.2695L23.7251 29.6155L23.0161 31.7925L24.8811 30.4465Z" fill="#FFF100"/>
<path fill-rule="evenodd" clip-rule="evenodd" d="M28.1898 37.829L27.4758 35.623L26.7598 37.831L24.4258 37.829L26.3198 39.175L25.6088 41.351L27.4758 40.003L29.3418 41.351L28.6308 39.175L30.5248 37.829H28.1898Z" fill="#FFF100"/>
<path fill-rule="evenodd" clip-rule="evenodd" d="M35.2689 44.826L34.5549 42.623L33.8409 44.828L31.5039 44.826L33.3979 46.172L32.6899 48.348L34.5549 47.002L36.4199 48.348L35.7119 46.172L37.6049 44.826H35.2689Z" fill="#FFF100"/>
<path fill-rule="evenodd" clip-rule="evenodd" d="M44.9124 47.3612L44.1984 45.1562L43.4844 47.3643L41.1484 47.3612L43.0424 48.7072L42.3334 50.8842L44.1994 49.5382L46.0634 50.8842L45.3544 48.7072L47.2494 47.3612H44.9124Z" fill="#FFF100"/>
<path fill-rule="evenodd" clip-rule="evenodd" d="M54.557 44.826L53.843 42.623L53.126 44.828L50.793 44.826L52.686 46.172L51.977 48.348L53.843 47.002L55.709 48.348L54.998 46.172L56.893 44.826H54.557Z" fill="#FFF100"/>
<path fill-rule="evenodd" clip-rule="evenodd" d="M61.6371 37.829L60.9211 35.623L60.2051 37.831L57.8711 37.829L59.7661 39.175L59.0551 41.351L60.9211 40.003L62.7871 41.351L62.0761 39.175L63.9701 37.829H61.6371Z" fill="#FFF100"/>
<path fill-rule="evenodd" clip-rule="evenodd" d="M66.5375 28.2421H64.2015L63.4845 26.0371L62.7705 28.2451L60.4355 28.2421L62.3305 29.5881L61.6215 31.7641L63.4845 30.4171L65.3515 31.7641L64.6425 29.5881L66.5375 28.2421Z" fill="#FFF100"/>
<path fill-rule="evenodd" clip-rule="evenodd" d="M59.0551 22.2309L60.9211 20.8849L62.7871 22.2309L62.0761 20.0549L63.9701 18.7109H61.6371L60.9211 16.5059L60.2051 18.7139L57.8711 18.7109L59.7661 20.0549L59.0551 22.2309Z" fill="#FFF100"/>
<path fill-rule="evenodd" clip-rule="evenodd" d="M53.8684 9.5332L53.1554 11.7412L50.8184 11.7362L52.7114 13.0852L52.0034 15.2612L53.8714 13.9132L55.7354 15.2612L55.0254 13.0852L56.9214 11.7362H54.5824L53.8684 9.5332Z" fill="#FFF100"/>
</g>
<defs>
<clipPath id="clip0_495_995">
<rect width="186.583" height="58.269" fill="white"/>
</clipPath>
</defs>
</svg>
