<svg width="765" height="469" viewBox="0 0 765 469" fill="none" xmlns="http://www.w3.org/2000/svg">
<g id="mapbg 1" clip-path="url(#clip0_335_2928)">
<path id="BGR2231" d="M516.681 197.671L514.003 202.203L516.451 207.526L516.834 210.619L515.686 214.215L517.446 218.388L518.899 222.416L517.063 224.718L516.528 227.595L517.14 231.479L514.386 233.853L510.561 235.22L507.501 237.809L509.184 241.838L513.085 243.06L515.992 244.859L518.976 246.297L523.183 245.146L527.238 243.132L527.62 248.311L526.396 252.915L525.096 254.713L523.489 255.577L520.276 255.073L519.052 256.512L517.369 257.663L515.457 259.317L513.544 261.619L506.506 263.705L499.468 263.13L495.949 263.921L492.736 266.079L494.037 268.596L495.337 270.682L492.966 271.833L490.9 273.632L488.376 279.818L482.715 281.616L476.518 279.458L473.994 280.969L475.218 285.788L471.622 288.09L467.185 288.45L468.027 294.132L471.852 294.348L474.07 295.859L467.797 310.102L468.715 317.654L466.956 323.337L462.519 327.006L459.612 327.509L456.934 326.358L453.415 326.502L449.667 327.653L443.47 320.676L444.082 309.31L441.634 302.261L435.973 294.852L434.367 291.327L434.52 287.443L431.077 281.544L432.531 278.451L432.225 274.711L430.159 270.97L427.405 269.963L426.028 267.661L432.378 263.058L431.842 257.519L428.4 251.261L424.881 240.183L423.58 229.537L429.088 229.393L434.596 228.242L442.629 229.321L445.383 227.451L447.907 224.79L450.738 224.142L453.568 224.214L455.098 220.689L454.792 216.158L456.705 213.424L459.612 212.561L464.89 209.684L467.644 203.498L470.857 203.066L473.994 201.987L475.524 199.757L477.283 197.743L479.349 196.88L480.114 194.794V190.118L482.256 190.55L484.245 190.478L487.611 189.039L490.671 190.334L490.135 192.204L490.977 193.93L492.201 193.139L493.119 191.629L497.709 194.578L500.845 194.722L503.829 194.074L506.583 192.42L509.26 193.427L512.856 195.801L516.681 197.671Z" fill="#DBDFE1" stroke="white" stroke-width="2" stroke-linecap="round" stroke-linejoin="round"/>
<path id="BGR2232" d="M464.049 344.197L474.53 349.161L485.699 350.528L489.371 353.189L490.289 358.009L491.36 360.382L493.196 357.649L495.797 354.34L500.004 355.275L502.911 359.088L502.758 364.914L505.206 367.647L508.266 369.518L511.403 370.956L514.08 369.518L513.468 373.474L512.474 376.279L510.791 378.365L504.977 380.092L492.431 379.588L487.382 383.76L485.699 387.429L485.24 390.81L486.081 393.831L487.305 395.485L482.639 395.917L480.038 395.198L478.508 393.975L475.218 390.45L474.224 389.875L472.464 389.731L469.787 392.176L463.131 392.392L459.842 393.183L456.552 395.701L454.028 396.349L453.186 397.284L452.498 399.154L452.421 401.384L452.804 403.614L453.875 406.131L453.033 405.7L447.831 407.354L446.531 409.944L444.236 409.872L442.247 410.951L441.405 414.116L436.509 418.576L431.154 416.202L425.57 410.591L424.805 407.57L424.346 404.477L420.062 402.966L415.778 404.909L414.324 407.93L411.8 409.656L409.658 409.296L407.592 408.217L404.991 409.296L402.62 409.728L398.489 407.714L399.254 403.47L402.008 397.356L398.795 391.241L397.494 389.299L396.117 388.076H393.822L391.757 386.782L389.462 384.192L386.784 384.264L384.719 386.494L382.118 386.71L379.44 384.552L374.468 382.466L373.32 380.308L373.473 377.286L372.096 374.913L369.801 375.057L367.736 376.207L364.982 379.444L361.233 380.595L354.807 379.516L350.37 370.021L351.824 366.137L358.02 362.181L362.151 355.563L362.534 353.117L361.157 351.75L360.545 350.384L361.233 348.657L360.315 343.118L359.091 337.795L359.321 330.674L362.304 330.962L364.829 332.041L369.189 333.767H373.244L375.539 335.566L379.517 335.997L380.664 330.53L382.424 325.495L386.478 323.984L390.609 325.351L396.5 321.467L400.631 323.409L400.784 326.07L400.554 328.732L398.795 331.178L401.778 331.969L405.603 330.243L409.046 332.976L414.018 337.939L416.925 341.752L422.663 339.162L427.712 334.487L429.089 332.616L430.772 331.609L431.843 332.185L440.487 334.559L446.913 341.176L450.05 345.492L453.569 348.226L458.694 345.708L464.049 344.197Z" fill="#DBDFE1" stroke="white" stroke-width="2" stroke-linecap="round" stroke-linejoin="round"/>
<path id="BGR2233" d="M423.581 229.537L424.881 240.183L428.4 251.26L431.843 257.518L432.378 263.057L426.029 267.661L427.406 269.963L430.16 270.97L432.225 274.71L432.531 278.451L431.078 281.544L434.52 287.442L434.367 291.327L435.974 294.851L441.635 302.26L444.083 309.31L443.471 320.675L449.667 327.653L453.416 326.502L456.935 326.358L459.612 327.509L462.519 327.005L462.443 335.709L464.126 339.881L464.049 344.197L458.694 345.708L453.569 348.225L450.05 345.492L446.913 341.176L440.487 334.558L431.843 332.184L430.771 331.609L429.089 332.616L427.712 334.486L422.663 339.162L416.925 341.751L414.018 337.939L409.046 332.976L405.603 330.242L401.778 331.969L398.795 331.177L400.554 328.732L400.784 326.07L400.631 323.409L396.5 321.466L390.609 325.351L386.478 323.984L382.424 325.495L380.664 330.53L379.517 335.997L375.539 335.565L373.244 333.767H369.189L364.829 332.041L361.769 327.797L357.255 324.847L353.354 323.912L349.146 324.991L346.851 325.207L345.092 329.019L342.873 328.588L343.332 326.43L341.955 325.423L340.043 324.631L338.742 323.193L337.748 323.768L335.376 322.186L333.54 315.856L335.147 310.533L339.278 308.95L342.797 306.936L340.119 301.829L338.742 298.376L338.589 294.564L337.901 289.097L341.267 286.795L345.857 288.593L347.922 288.881L348.687 286.651L348.075 284.637L346.545 283.918L343.715 280.897L346.086 275.358L344.097 272.193L340.119 273.416L334.611 273.344L329.868 269.963L327.803 267.301L326.885 263.848V261.762L323.978 255.504L326.273 254.713L327.42 251.62L325.431 240.47L326.043 235.004L332.316 235.435L338.589 234.284L344.939 231.479L351.059 231.191L352.818 233.853L354.807 235.867L359.703 233.061L366.359 234.284L372.708 236.946L376.61 236.586L379.593 234.428L383.648 235.435L385.866 234.5L387.702 233.349L389.997 234.212L392.904 231.119L394.893 231.982L396.959 234.716L399.407 236.586L401.166 234.932L400.248 232.054L403.155 232.27L405.297 233.565L409.428 230.616L413.865 228.602L416.084 229.321L418.379 229.609L420.98 229.249L423.581 229.537Z" fill="#DBDFE1" stroke="white" stroke-width="2" stroke-linecap="round" stroke-linejoin="round"/>
<path id="BGR2234" d="M252.45 264.064L251.073 271.473L250.767 279.314L253.445 279.818L254.898 283.774L254.669 285.284L254.822 288.809L255.969 292.262V295.211L258.188 296.074L261.018 300.678L259.182 304.778L259.335 307.008L261.324 309.741L262.242 313.985L261.707 318.373L261.554 321.538L263.619 322.977L265.532 325.135L263.772 327.509L260.406 328.3L257.576 330.386L257.958 336.86L256.505 340.313L257.193 344.557L259.106 351.894L257.652 359.087L256.352 363.403L254.363 368.295L249.849 370.524L246.33 372.61L241.128 379.444L241.052 386.565L235.773 391.025L228.812 391.241L226.44 393.327L224.298 393.183L225.216 390.45L225.752 387.644L220.932 383.472L214.812 382.537L210.375 383.328L210.758 387.069L212.976 388.723L214.812 391.025L215.118 396.06L211.523 399.585L209.228 398.578L207.774 395.917L193.928 386.925L192.627 384.479L191.097 382.681L188.726 383.256L186.584 382.825L183.906 380.235L180.923 378.437L177.71 372.754L177.021 365.777L175.109 363.331L173.655 360.526L174.344 358.008L174.191 354.915L177.251 348.081L180.77 344.269L178.398 341.608V338.155L179.852 336.356L180.234 333.911L179.469 330.746L177.327 328.588L174.956 326.789L173.732 323.768L175.874 323.265L177.71 322.042L177.557 320.028L178.398 318.589L184.136 316.359L188.114 310.82L189.032 306.217L192.015 305.426L193.392 307.44L194.999 308.95L197.523 309.741L199.512 307.44L199.436 304.85L197.447 303.339L195.534 297.513L197.676 290.464L202.572 289.96L207.315 288.018L209.304 282.263L207.392 279.17L201.195 280.105L196.605 276.221L195.075 274.063L193.086 272.552L191.403 269.675L190.256 266.366L190.944 262.913L194.54 261.691L197.906 261.331L201.195 262.482L203.873 264.64L206.856 265.431L212.594 262.338H215.654L218.484 260.971L221.85 256.439L226.364 254.713L228.429 254.353L230.571 253.49L234.09 253.706L237.38 254.785L238.757 257.231L239.445 259.964L241.664 260.971L243.959 261.619L245.412 263.561L247.248 263.633L249.849 263.201L252.45 264.064Z" fill="#DBDFE1" stroke="white" stroke-width="2" stroke-linecap="round" stroke-linejoin="round"/>
<path id="BGR2235" d="M326.043 233.349V235.004L325.431 240.471L327.42 251.62L326.273 254.713L323.978 255.505L326.885 261.763V263.849L327.803 267.302L329.868 269.963L334.611 273.344L340.119 273.416L344.097 272.193L346.086 275.358L343.715 280.897L346.545 283.918L348.075 284.637L348.687 286.651L347.922 288.881L345.857 288.594L341.267 286.795L337.901 289.097L338.589 294.564L338.742 298.376L340.119 301.829L342.797 306.936L339.278 308.95L335.147 310.533L333.54 315.856L335.376 322.186L337.748 323.769L338.742 323.193L340.043 324.632L341.955 325.423L343.332 326.43L342.873 328.588L345.092 329.02L346.851 325.207L349.146 324.991L353.354 323.912L357.255 324.848L361.769 327.797L364.829 332.041L362.304 330.962L359.321 330.674L359.091 337.795L360.315 343.118L361.233 348.657L360.545 350.384L361.157 351.75L362.534 353.117L362.151 355.563L358.02 362.18L351.824 366.137L348.534 365.346L345.78 367.072L344.633 368.87L342.873 369.518L340.961 371.891L339.813 375.272L337.059 377.358L336.447 380.739L335.759 383.113L332.852 382.897L330.786 382.034L328.491 381.962L323.901 376.135L320.612 377.142L316.557 377.286L314.186 373.186L311.202 370.597L305.771 367.36L301.334 361.893L295.367 360.382L289.4 361.102L283.05 362.828L277.083 366.424L271.269 369.014L257.652 359.087L259.106 351.894L257.193 344.557L256.505 340.313L257.958 336.86L257.576 330.386L260.406 328.3L263.772 327.509L265.532 325.135L263.619 322.977L261.554 321.539L261.707 318.374L262.242 313.986L261.324 309.742L259.335 307.008L259.182 304.778L261.018 300.678L258.188 296.075L255.969 295.211V292.262L254.822 288.809L254.669 285.285L254.898 283.774L253.445 279.818L250.767 279.314L251.073 271.474L252.45 264.065L256.581 263.849L259.794 261.691L260.33 258.238L257.193 256.152L253.445 251.117L248.166 248.527L246.56 241.334L251.073 233.925L256.046 234.428L263.619 228.098L268.286 228.026L274.023 228.674L279.608 230.76L283.662 235.867L288.558 239.895L294.372 241.046L296.208 240.686L297.203 239.536H303.629L309.825 240.902L315.486 240.327L320.535 237.521L320.918 235.579L322.218 234.213L326.043 233.349Z" fill="#DBDFE1" stroke="white" stroke-width="2" stroke-linecap="round" stroke-linejoin="round"/>
<path id="BGR2236" d="M332.851 382.897L330.709 385.126L329.332 388.148L330.633 390.809L332.698 393.615L334.076 398.722L335.758 400.376L334.917 403.397L335.146 406.922L336.064 408.361L335.682 409.512L332.545 411.67L329.179 412.461L326.425 411.957L323.824 412.892L323.901 416.345L326.043 419.151L328.032 423.826L330.403 428.142L333.311 429.509L335.452 426.344L341.955 424.617L343.332 431.667L342.567 433.609L343.179 435.048L342.72 438.86L341.113 442.241L343.561 445.981L342.49 448.787L343.561 456.052L343.408 457.706L338.895 455.62L337.059 453.247L334.458 453.606L314.491 445.622L310.819 443.464L309.136 443.248L305.388 444.327L300.645 444.687L300.262 446.701L300.568 449.362L299.574 451.592L297.126 451.448L294.448 449.218L290.317 444.183L287.946 442.169L285.727 441.162L283.356 440.802H280.526L281.291 439.292L277.007 439.364L275.323 439.004L273.487 437.349L273.641 435.048L273.105 433.825L271.881 433.105L269.662 430.444L269.356 429.221L268.974 424.905L267.444 420.949L264.919 418.791L261.401 420.086L258.646 420.589L256.198 423.97L254.362 424.33L251.838 423.97L249.926 424.114L245.794 425.265L244.723 425.409L241.511 425.049L238.757 425.84L237.609 425.481V422.028L235.237 420.589L233.248 418.503L231.107 418.719L228.812 419.654L226.746 420.877L212.134 409.152L215.271 407.21L217.642 404.476L214.429 402.39L213.282 400.448L211.522 399.585L215.118 396.06L214.812 391.025L212.976 388.723L210.757 387.069L210.375 383.328L214.812 382.537L220.932 383.472L225.752 387.644L225.216 390.449L224.298 393.183L226.44 393.327L228.812 391.241L235.773 391.025L241.052 386.565L241.128 379.444L246.33 372.61L249.849 370.524L254.362 368.294L256.352 363.403L257.652 359.087L271.269 369.014L277.083 366.424L283.05 362.827L289.399 361.101L295.366 360.382L301.333 361.892L305.771 367.359L311.202 370.596L314.186 373.186L316.557 377.286L320.611 377.142L323.901 376.135L328.491 381.961L330.786 382.033L332.851 382.897Z" fill="#DBDFE1" stroke="white" stroke-width="2" stroke-linecap="round" stroke-linejoin="round"/>
<path id="BGR2237" d="M351.823 366.137L350.37 370.021L354.807 379.516L361.233 380.595L364.981 379.444L367.735 376.208L369.801 375.057L372.096 374.913L373.473 377.287L373.32 380.308L374.467 382.466L379.44 384.552L382.117 386.71L384.718 386.494L386.784 384.264L389.461 384.192L391.756 386.782L393.822 388.076H396.117L397.494 389.299L398.794 391.241L402.007 397.356L399.253 403.47L398.488 407.714L402.619 409.728L404.991 409.296L407.592 408.217L409.657 409.296L411.799 409.656L414.324 407.93L415.777 404.909L420.061 402.966L424.345 404.477L424.804 407.57L425.569 410.591L431.154 416.202L436.509 418.576L441.405 414.116L442.246 410.951L444.235 409.872L446.53 409.944L447.831 407.354L453.033 405.7L453.874 406.131L454.792 407.426L456.552 408.217L459.612 409.153L461.371 411.598L462.519 415.555L462.442 419.079L463.284 420.662L465.273 421.021L465.885 421.741L466.497 423.755L466.726 425.481L466.038 429.15L464.661 430.517L464.431 431.596L465.655 434.257L467.874 436.487L468.027 438.645L466.65 439.292L466.038 440.227L464.661 444.04L462.825 447.852L461.371 450.01L459.688 450.154L449.284 452.456L447.754 453.175L444.465 455.261L441.711 456.556L440.334 456.7L437.044 456.34L433.984 457.851L432.225 458.211L429.853 457.275L426.334 453.535L423.58 452.528L422.356 453.031L417.766 455.909L413.559 456.197L412.182 456.7L408.969 459.074L406.444 458.93L403.92 457.563L402.696 457.132L391.909 456.412L390.303 456.988L388.543 460.081L387.472 461.376L386.248 461.807L383.112 461.304L379.975 461.807L359.473 468.065L356.643 468.281L353.812 467.85L351.441 466.483L346.239 459.793L343.408 457.707L343.561 456.053L342.49 448.787L343.561 445.982L341.113 442.242L342.72 438.861L343.179 435.048L342.567 433.61L343.332 431.667L341.955 424.618L335.452 426.345L333.31 429.51L330.403 428.143L328.032 423.827L326.043 419.151L323.901 416.346L323.824 412.893L326.425 411.958L329.179 412.462L332.545 411.67L335.682 409.512L336.064 408.361L335.146 406.923L334.917 403.398L335.758 400.377L334.075 398.722L332.698 393.615L330.633 390.81L329.332 388.148L330.709 385.127L332.851 382.897L335.758 383.113L336.447 380.739L337.059 377.358L339.813 375.272L340.96 371.892L342.873 369.518L344.632 368.87L345.78 367.072L348.534 365.346L351.823 366.137Z" fill="#DBDFE1" stroke="white" stroke-width="2" stroke-linecap="round" stroke-linejoin="round"/>
<path id="BGR2243" d="M114.673 268.668L112.378 266.222L105.187 261.043L101.362 259.605L100.827 254.138L99.9854 251.189L98.6849 248.599L96.1604 247.376L94.0184 245.722L91.1114 242.988L87.8984 240.974L91.7234 236.442L96.8489 235.939L99.3734 237.593L102.28 238.025L104.422 236.874L106.258 234.788L106.564 231.695L105.034 228.889L111.001 224.214L111.154 217.021L114.061 211.554L115.974 212.273L117.504 213.999L123.624 217.812L129.514 219.394L135.634 216.949L141.219 215.798L145.962 219.898L150.552 220.186L154.912 217.308L153.382 221.408L150.858 225.868L144.279 239.535L141.984 249.102L143.82 252.483L149.022 264.352L155.448 275.07L159.273 278.523L160.497 283.702L157.437 286.651L153.994 285.213L148.869 286.004L145.579 283.918L146.956 278.811L144.508 274.495L143.667 271.833V269.963L138.694 268.956L136.399 273.488L133.339 277.947L128.979 276.94L124.618 273.703L114.673 268.668Z" fill="#DBDFE1" stroke="white" stroke-width="2" stroke-linecap="round" stroke-linejoin="round"/>
<path id="BGR2244" d="M129.362 169.904L133.263 170.048L137.012 171.919L138.006 174.005L135.405 174.077L133.646 175.371L133.722 178.536L135.558 180.191L137.624 181.557L140.913 184.435L143.744 187.959L145.58 191.484L148.104 194.074L152.847 191.34L158.049 187.24L159.962 188.895L161.798 191.125L165.011 191.268L168.071 190.117L170.748 186.952L174.114 184.866L178.704 186.737L190.715 188.823L192.704 189.758L194.769 191.196L197.676 189.326L199.895 186.161L203.414 186.089L205.632 188.391L206.55 190.693L208.233 192.347L208.998 195.584L208.08 198.893L210.681 201.771L213.665 204.576L218.408 205.583L221.162 209.827L221.468 214.934L221.238 220.041L219.555 226.3L222.003 229.896L237.456 230.04L240.363 231.623L243.194 233.493L247.095 234.284L251.073 233.924L246.56 241.333L248.166 248.527L253.445 251.116L257.193 256.152L260.33 258.238L259.794 261.69L256.581 263.848L252.45 264.064L249.849 263.201L247.248 263.632L245.412 263.561L243.959 261.618L241.664 260.971L239.445 259.964L238.757 257.231L237.38 254.785L234.09 253.706L230.571 253.49L228.429 254.353L226.364 254.713L221.85 256.439L218.484 260.971L215.654 262.338H212.594L206.856 265.431L203.873 264.64L201.195 262.482L197.906 261.331L194.54 261.69L190.944 262.913L190.256 266.366L191.403 269.675L193.086 272.552L195.075 274.063L196.605 276.221L201.195 280.105L207.392 279.17L209.304 282.263L207.315 288.018L202.572 289.96L197.676 290.463L195.534 297.513L197.447 303.339L199.436 304.85L199.512 307.439L197.523 309.741L194.999 308.95L193.392 307.439L192.015 305.425L189.032 306.217L188.114 310.82L184.136 316.359L178.398 318.589L177.557 320.028L177.71 322.042L175.874 323.265L173.732 323.768L171.819 323.696L170.442 325.423L168.224 326.43L165.852 325.423L161.721 326.142L158.432 327.365L153.918 327.94L151.547 333.551L147.492 338.227L140.913 335.925L143.973 333.695L145.274 330.386L142.061 328.875L138.389 328.66L136.017 324.631L132.881 322.329L127.526 323.768L122.018 324.487L120.258 320.963L124.083 316.215L125.613 313.41L128.061 312.619L129.362 310.676L127.602 307.439L124.925 306.504L122.936 304.418L122.018 302.908L120.641 302.116L116.51 293.413L113.909 293.988L111.078 294.132L109.089 293.125L106.947 293.413L107.483 290.607L109.089 288.305L107.789 281.544L110.543 274.566L114.674 268.668L124.619 273.703L128.979 276.94L133.34 277.947L136.4 273.487L138.695 268.955L143.667 269.963V271.833L144.509 274.494L146.957 278.81L145.58 283.917L148.869 286.004L153.995 285.212L157.437 286.651L160.497 283.702L159.273 278.523L155.448 275.07L149.022 264.352L143.82 252.483L141.984 249.102L144.279 239.535L150.858 225.868L153.383 221.408L154.913 217.308L150.552 220.185L145.962 219.898L141.219 215.797L135.635 216.948L129.515 219.394L123.624 217.811L117.504 213.999L115.974 212.273L114.062 211.553L111.155 217.02L111.002 224.213L105.035 228.889L106.565 231.694L106.259 234.788L104.423 236.874L102.281 238.025L99.3738 237.593L96.8493 235.938L91.7238 236.442L87.8988 240.974L86.0628 236.298L83.6913 232.702L80.0193 233.205L77.7243 232.702L76.4238 230.615H72.6753L70.6098 226.731L68.2383 223.998L65.2548 225.724L62.8068 224.142L63.5718 219.178L61.8123 218.243L60.1293 221.048L58.1403 221.408L57.2223 220.617L56.0748 220.761L55.0038 219.322L54.3153 217.38L52.2498 214.287L48.8838 211.409L49.6488 209.611L51.7908 202.058L52.5558 200.044L53.3973 198.749L54.8508 197.886L58.2168 197.167L59.7468 196.591L61.4298 194.361L66.5553 189.758L67.1673 188.535L68.0853 185.658L69.6918 183.715L72.7518 182.061L75.2763 178.536L77.4948 173.357L78.7953 168.106L78.5658 166.092L84.2268 164.869L93.0243 174.796L96.1608 177.098L107.559 178.033L111.767 176.234L115.592 175.227L119.493 176.522L124.925 174.508L129.362 169.904Z" fill="#DBDFE1" stroke="white" stroke-width="2" stroke-linecap="round" stroke-linejoin="round"/>
<path id="BGR2245" d="M87.8981 240.974L91.1111 242.989L94.0181 245.722L96.1601 247.376L98.6846 248.599L99.9851 251.189L100.827 254.138L101.362 259.605L105.187 261.044L112.378 266.223L114.673 268.668L110.542 274.567L107.788 281.544L109.089 288.306L107.482 290.608L106.947 293.413L103.581 293.845L100.368 292.19L96.6956 291.615L93.1766 288.738L91.6466 292.982L89.5811 293.269L87.2861 291.831L80.7071 289.745L77.9531 290.464L70.6091 291.039L65.7131 294.852L62.3471 295.427L59.5166 293.773L57.4511 290.464L54.7736 287.946L52.0196 286.364L50.1071 283.415L47.5826 280.465L45.6701 277.732L46.0526 272.769L43.9106 269.747L40.3151 270.754L38.2496 268.453L37.7906 265.216L35.6486 263.13L33.3536 259.389L31.7471 254.929L27.9986 253.059L23.4086 253.491L17.4416 252.628L12.5456 252.987L13.4636 247.52L12.6221 245.362L15.7586 239.68L17.4416 238.169V236.299L15.6056 234.932L13.9226 232.558L11.0156 225.941L10.7861 224.718L11.9336 223.063L13.0046 222.128L16.1411 220.618L17.4416 219.539L19.2776 216.805L20.4251 215.87L24.2501 216.158L25.7801 214.791L27.4631 213.712L30.7526 213.28L39.9326 215.654L43.6811 214.791L47.3531 213.28L48.8831 211.41L52.2491 214.287L54.3146 217.381L55.0031 219.323L56.0741 220.761L57.2216 220.618L58.1396 221.409L60.1286 221.049L61.8116 218.244L63.5711 219.179L62.8061 224.142L65.2541 225.725L68.2376 223.998L70.6091 226.732L72.6746 230.616H76.4231L77.7236 232.702L80.0186 233.206L83.6906 232.702L86.0621 236.299L87.8981 240.974Z" fill="#DBDFE1" stroke="white" stroke-width="2" stroke-linecap="round" stroke-linejoin="round"/>
<path id="BGR2246" d="M333.464 167.099L334.229 170.121L336.906 171.919L338.972 175.947L342.185 178.321L358.709 178.609L360.468 181.917L362.075 186.09L365.211 187.456L373.167 188.319L381.659 188.032L385.484 189.111L392.904 190.334L394.97 196.448L392.139 205.08L397.341 210.043L399.789 210.69L401.243 212.992L401.166 217.092L400.095 220.761L397.494 225.652L400.248 232.054L401.166 234.932L399.407 236.586L396.959 234.716L394.893 231.983L392.904 231.119L389.997 234.212L387.702 233.349L385.866 234.5L383.648 235.435L379.593 234.428L376.61 236.586L372.708 236.946L366.359 234.284L359.703 233.062L354.807 235.867L352.818 233.853L351.059 231.191L344.939 231.479L338.589 234.284L332.316 235.435L326.043 235.004V233.349L324.972 225.724L321.912 218.531L317.093 215.366L311.814 212.992L310.667 211.266L309.902 209.252L310.361 206.878L309.825 204.576L308.448 197.599L314.874 190.262L313.88 185.154L315.41 178.752L320 175.587L320.841 169.617L322.83 164.726L328.568 165.517L333.464 167.099Z" fill="#DBDFE1" stroke="white" stroke-width="2" stroke-linecap="round" stroke-linejoin="round"/>
<path id="BGR2247" d="M338.283 151.489L338.895 161.704L333.464 167.099L328.568 165.516L322.83 164.725L320.841 169.616L320 175.587L315.41 178.752L313.88 185.154L314.874 190.261L308.448 197.598L309.825 204.576L310.361 206.878L309.902 209.251L310.667 211.265L311.814 212.992L317.093 215.366L321.912 218.531L324.972 225.724L326.043 233.349L322.218 234.212L320.918 235.579L320.535 237.521L315.486 240.326L309.825 240.902L303.629 239.535H297.203L296.208 240.686L294.372 241.045L288.558 239.895L283.662 235.866L279.608 230.759L274.023 228.673L268.286 228.026L263.619 228.098L256.046 234.428L251.073 233.924L247.095 234.284L243.194 233.493L240.363 231.622L237.456 230.04L222.003 229.896L219.555 226.299L221.238 220.041L221.468 214.934L221.162 209.827L218.408 205.583L213.665 204.576L210.681 201.77L208.08 198.893L208.998 195.584L208.233 192.347L206.55 190.693L205.632 188.391L203.414 186.089L199.895 186.161L198.212 181.989L197.6 177.529L199.436 176.306L201.578 178.105H204.638L205.938 174.58L206.933 168.322L205.938 162.207L212.441 158.611L218.867 155.805L221.774 158.107L224.528 157.532L228.276 159.474L231.336 159.978L234.32 159.114L237.915 157.748L241.358 156.884L243.423 154.583L245.795 152.425L248.166 151.777H250.538L252.756 154.007L254.363 157.028L256.734 159.186L265.532 161.632L271.499 161.848L272.723 163.934L274.635 163.214L278.919 159.762L281.214 157.028L282.209 154.798L283.586 153L284.886 154.798L286.263 153.863L288.023 151.418L294.525 146.958L301.946 146.526L304.776 146.742L309.366 146.238L311.967 149.188L315.18 149.044L318.546 148.109L322.218 146.598L325.431 144.368L327.65 142.354L328.262 138.254L330.71 141.419L333.846 147.389L338.283 151.489Z" fill="#DBDFE1" stroke="white" stroke-width="2" stroke-linecap="round" stroke-linejoin="round"/>
<path id="BGR2248" d="M359.474 86.5349L359.091 87.47L355.802 89.4122L352.818 92.0018L351.135 98.4038L347.54 102.576L348.458 107.539L350.447 107.827L351.441 109.338L348.611 114.876L345.092 119.12L341.267 122.789L342.644 126.17L347.846 125.882L348.917 131.565L351.518 136.6L352.206 142.57L347.081 147.174L344.862 148.541L342.873 150.339L338.283 151.49L333.846 147.39L330.71 141.419L328.262 138.254L327.65 142.355L325.431 144.369L322.218 146.599L318.546 148.109L315.18 149.044L311.967 149.188L309.366 146.239L304.776 146.742L301.946 146.527L294.525 146.958L288.023 151.418L286.263 153.864L284.886 154.799L283.586 153.001L282.209 154.799L281.214 157.029L278.919 159.762L274.635 163.215L272.723 163.934L271.499 161.848L265.532 161.632L256.734 159.187L254.363 157.029L252.756 154.008L250.538 151.778H248.166L245.795 152.425L243.423 154.583L241.358 156.885L237.915 157.748L234.32 159.115L231.336 159.978L228.276 159.474L224.528 157.532L221.774 158.108L218.867 155.806L212.441 158.611L205.938 162.208L197.676 159.115L196.605 156.957L197.906 153.792L200.048 149.188L209.075 145.807L212.67 147.03L213.971 145.376L216.342 143.937L220.473 143.721L224.681 144.369L230.495 141.563L231.489 132.356L232.484 129.335L232.331 126.601L230.112 119.192L224.451 118.113L221.162 113.15L219.785 107.467L217.337 102.648L220.32 99.9144L223.686 96.1019L226.976 93.3685L230.877 93.7282L237.762 90.5631L242.811 83.226L243.729 75.6012L246.33 75.4573L248.472 74.8818L255.281 70.0624L259.565 68.7676L263.696 69.1992L288.711 78.0469L294.449 78.8381L320.229 77.1117L334.611 82.0032L350.447 83.1541L355.419 84.305L359.474 86.5349Z" fill="#DBDFE1" stroke="white" stroke-width="2" stroke-linecap="round" stroke-linejoin="round"/>
<path id="BGR2249" d="M383.495 89.8441L384.413 91.6424L386.631 98.6198L384.03 104.087L381.353 106.029L381.965 109.482L388.238 113.941L388.391 115.884L390.303 116.171L391.986 114.373L393.822 115.38L392.598 119.84L391.757 124.084L398.565 130.558L405.527 133.075L407.057 130.126H410.04L410.958 131.997L412.871 131.925L414.707 133.867L417.078 135.953L421.209 137.104L425.417 137.463L428.63 138.183L431.766 138.039L435.209 136.384L438.728 136.456L439.416 139.837L440.487 143.578L444.695 145.088L449.132 145.376L453.798 147.03L457.164 150.627L454.563 153.217L454.41 156.741L458.388 161.777L459.765 167.531L456.323 167.891L455.481 170.193L455.558 172.854L453.875 176.307L453.645 180.047L455.175 183.428L456.629 186.953L457.164 189.327L458.618 190.765L460.301 191.341L460.224 193.355L457.547 195.513L458.159 199.038L463.208 200.117L467.645 203.497L464.891 209.684L459.612 212.561L456.705 213.424L454.793 216.158L455.099 220.689L453.569 224.214L450.738 224.142L447.908 224.789L445.383 227.451L442.629 229.321L434.597 228.242L429.089 229.393L423.581 229.537L420.98 229.249L418.379 229.609L416.084 229.321L413.865 228.602L409.428 230.616L405.297 233.565L403.155 232.27L400.248 232.055L397.494 225.653L400.095 220.761L401.166 217.093L401.243 212.993L399.789 210.691L397.341 210.043L392.139 205.08L394.97 196.448L392.904 190.334L385.484 189.111L381.659 188.032L373.167 188.32L365.211 187.456L362.075 186.09L360.468 181.918L358.709 178.609L342.185 178.321L338.972 175.947L336.906 171.919L334.229 170.121L333.464 167.1L338.895 161.705L338.283 151.49L342.873 150.339L344.862 148.541L347.081 147.174L352.206 142.571L351.518 136.6L348.917 131.565L347.846 125.882L342.644 126.17L341.267 122.789L345.092 119.121L348.611 114.877L351.441 109.338L350.447 107.827L348.458 107.539L347.54 102.576L351.135 98.404L352.818 92.002L355.802 89.4125L359.091 87.4703L359.474 86.5352L364.064 89.8441L368.501 92.2898L373.856 92.9371L376.61 92.2178L381.659 90.1318L383.495 89.8441Z" fill="#DBDFE1" stroke="white" stroke-width="2" stroke-linecap="round" stroke-linejoin="round"/>
<path id="BGR2250" d="M156.366 63.7325L157.896 68.9836L156.596 82.7946L154.683 88.4773L152.235 93.7284L151.929 95.5986L152.159 97.5408L150.705 99.6268L148.563 101.065L147.875 103.439L151.241 106.245L152.771 106.748L153.689 108.259L154.989 109.482L156.519 110.273L156.672 112.215L154.989 113.654L152.924 112.431L150.017 114.589L147.263 117.61L144.815 117.754L142.443 117.61L139.46 115.884L134.487 118.617L130.815 123.724L131.045 129.767L130.05 135.953L127.143 139.837L124.619 144.225L121.635 147.822L120.564 152.138L129.668 155.231L137.241 159.115L135.635 162.712L132.498 162.999L129.056 165.661L129.362 169.905L124.925 174.509L119.493 176.523L115.592 175.228L111.767 176.235L107.559 178.033L96.1608 177.098L93.0243 174.796L84.2268 164.87L78.5658 166.092L78.4129 164.222L76.3474 163.359L70.3804 162.136L68.1618 160.913L66.4789 159.259L63.2658 155.087L60.2824 152.353L59.2114 149.98L58.8289 147.102L58.3699 145.879L56.8399 143.721L48.1189 135.449L47.0479 134.73L52.7854 129.838L55.9983 121.494V118.185L58.4464 116.891L62.9599 115.236L69.9979 114.517L76.8064 112.503L77.8774 109.841L77.1124 106.82L74.4349 106.245L73.1343 103.871L74.8939 95.3828L79.1779 89.0528L85.0683 86.9667L86.3689 84.7368L85.0683 81.4998L84.2268 78.2629L81.9319 77.3278L79.4074 76.7523L77.6479 74.5943L79.5604 72.2925L82.5439 72.5083L85.6039 71.717L86.5219 67.9765L87.0574 62.2939L96.7729 61.5026L100.445 59.992L104.729 59.1288L109.242 56.827L120.335 55.3164L139.766 56.3235L153 63.1571L156.366 63.7325Z" fill="#DBDFE1" stroke="white" stroke-width="2" stroke-linecap="round" stroke-linejoin="round"/>
<path id="BGR2251" d="M243.729 75.6011L242.811 83.2259L237.762 90.563L230.877 93.7281L226.976 93.3684L223.686 96.1019L220.32 99.9143L217.337 102.648L219.785 107.467L221.162 113.15L224.451 118.113L230.112 119.192L232.331 126.601L232.484 129.335L231.489 132.356L230.495 141.563L224.681 144.369L220.473 143.721L216.342 143.937L213.971 145.376L212.67 147.03L209.075 145.807L200.048 149.188L197.906 153.792L196.605 156.957L197.676 159.115L205.938 162.208L206.933 168.322L205.938 174.58L204.638 178.105H201.578L199.436 176.307L197.6 177.529L198.212 181.989L199.895 186.161L197.676 189.326L194.769 191.197L192.704 189.758L190.715 188.823L178.704 186.737L174.114 184.867L170.748 186.953L168.071 190.118L165.011 191.269L161.798 191.125L159.962 188.895L158.049 187.24L152.847 191.341L148.104 194.074L145.58 191.484L143.744 187.96L140.913 184.435L137.624 181.558L135.558 180.191L133.722 178.537L133.646 175.371L135.405 174.077L138.006 174.005L137.012 171.919L133.263 170.048L129.362 169.905L129.056 165.661L132.498 162.999L135.635 162.711L137.241 159.115L129.668 155.23L120.564 152.137L121.635 147.821L124.619 144.225L127.143 139.837L130.05 135.952L131.045 129.766L130.815 123.724L134.487 118.617L139.46 115.883L142.443 117.61L144.815 117.754L147.263 117.61L150.017 114.589L152.924 112.431L154.989 113.653L156.672 112.215L156.519 110.273L154.989 109.481L153.689 108.258L152.771 106.748L151.241 106.244L147.875 103.439L148.563 101.065L150.705 99.6265L152.159 97.5405L151.929 95.5983L152.235 93.7281L154.683 88.477L156.596 82.7943L157.896 68.9833L156.366 63.7322L158.279 64.0199L168.606 61.79L171.284 62.2936L178.245 66.1779L222.08 76.6081L243.729 75.6011Z" fill="#DBDFE1" stroke="white" stroke-width="2" stroke-linecap="round" stroke-linejoin="round"/>
<path id="BGR2252" d="M106.947 293.413L109.089 293.125L111.078 294.132L113.908 293.988L116.509 293.413L120.64 302.117L122.017 302.908L122.935 304.418L124.924 306.504L127.602 307.44L129.361 310.676L128.061 312.619L125.613 313.41L124.083 316.215L120.258 320.963L122.017 324.488L127.525 323.768L132.88 322.33L136.017 324.631L138.388 328.66L142.06 328.875L145.273 330.386L143.973 333.695L140.913 335.925L134.869 340.528L127.908 341.607L112.455 336.932L110.083 337.291L107.788 337.076H105.111L99.0672 340.025L95.6247 342.327L91.8762 343.406L88.0512 343.765L84.9146 341.679L81.3192 340.457L77.7236 340.744L75.6582 337.795L72.5982 337.939L69.0026 343.478L68.0847 346.571L65.4837 346.139L63.4182 348.225L61.8117 350.095L61.5822 349.017L59.5932 347.362L56.1507 348.009L55.1562 347.29L54.4676 345.204L52.7082 344.485L47.1236 344.701L46.2822 344.413L44.7522 342.614L41.1567 341.895L34.0421 338.514L23.4852 331.321L20.8841 328.875L19.0481 325.782L17.4416 321.322L12.7751 318.086L0.764648 302.692L3.05965 301.541L8.18515 301.469L10.4036 300.822L12.1631 298.592L14.0756 292.909L15.9881 290.535L17.8241 289.744L19.3541 289.384L20.7311 288.521L22.0316 286.004L23.7146 280.321L24.0971 277.084L23.6381 274.71L22.7201 272.552L21.1136 270.754L17.4416 268.164L11.0921 262.554L10.5566 262.338L11.0156 259.245L12.5456 252.987L17.4416 252.627L23.4086 253.49L27.9986 253.059L31.7472 254.929L33.3536 259.389L35.6487 263.129L37.7907 265.215L38.2496 268.452L40.3152 270.754L43.9107 269.747L46.0527 272.768L45.6702 277.731L47.5827 280.465L50.1072 283.414L52.0197 286.363L54.7737 287.946L57.4511 290.463L59.5167 293.772L62.3472 295.427L65.7132 294.851L70.6092 291.039L77.9532 290.463L80.7072 289.744L87.2862 291.83L89.5812 293.269L91.6467 292.981L93.1767 288.737L96.6957 291.614L100.368 292.19L103.581 293.844L106.947 293.413Z" fill="#DBDFE1" stroke="white" stroke-width="2" stroke-linecap="round" stroke-linejoin="round"/>
<path id="BGR2253" d="M87.0573 62.294L86.5218 67.9766L85.6038 71.7171L82.5438 72.5084L79.5603 72.2926L77.6478 74.5944L79.4073 76.7524L81.9318 77.3279L84.2268 78.263L85.0683 81.4999L86.3688 84.7369L85.0683 86.9668L79.1778 89.0529L74.8938 95.3829L73.1343 103.871L74.4348 106.245L77.1123 106.82L77.8773 109.841L76.8063 112.503L69.9978 114.517L62.9598 115.236L58.4463 116.891L55.9983 118.186V121.494L52.7853 129.839L47.0478 134.73L44.4468 133.507L40.9278 133.435L39.7803 133.076L38.7858 131.997L37.4088 129.335L36.4908 128.4L35.3433 128.04L32.7423 128.184L31.4418 127.896L30.2178 127.105L27.6933 124.084L23.6388 122.286L21.9558 120.775L20.8083 117.754L18.5133 110.273L17.0598 107.324V105.741L17.5953 104.59L16.9068 102.288L17.4423 100.778L16.4478 98.8357L16.3713 95.1671L15.5298 93.0811L14.3058 91.9302L10.7103 90.0599L9.18028 88.6932L8.03278 87.0387L6.34978 83.0105L5.73778 79.6297L6.19678 76.9682L6.04378 75.7453L2.90728 72.1487L1.30078 67.8328L1.91278 64.38L3.51928 60.7114L4.66678 55.82L4.89628 51.0725L6.80878 47.4039L7.11478 44.8863V40.2826L7.42078 38.3404L8.87428 36.1105L11.6283 35.0315L17.4423 34.1683L20.1198 34.0964L21.4968 32.442L22.4148 30.1401L23.8683 28.126L26.3163 27.2628L28.8408 27.4786L30.9828 27.047L32.4363 24.6013V23.1627L31.6713 19.7818L31.7478 16.401L33.0483 11.6535L32.4363 10.3587L32.5893 9.35163L34.8843 6.97786L36.7203 4.10055L37.7913 3.02157L43.0698 0.719727L69.2328 17.6239L73.6698 19.4222L79.1778 20.1415L84.4563 22.3714L85.5273 27.2628L83.4618 32.2262L79.1778 34.4561L76.5768 34.7438L71.6808 36.2544L69.1563 36.6141L66.7083 38.1246L65.4078 41.7213L62.4243 53.6621L62.5008 57.2587L64.0308 60.2799L67.0908 62.7975L70.8393 63.6607L87.0573 62.294Z" fill="#DBDFE1" stroke="white" stroke-width="2" stroke-linecap="round" stroke-linejoin="round"/>
<path id="BGR2254" d="M676.489 219.394L676.413 221.912L677.408 225.293L678.096 229.393V236.874L677.484 240.902L671.211 241.19L664.709 240.183L659.277 240.039L657.976 240.255L657.135 241.19L655.911 245.074L656.064 246.513L656.982 247.664L658.818 248.599L655.605 249.102L650.25 251.332L647.496 251.764L645.277 253.634L645.507 257.734L646.884 262.05L647.955 264.64L645.966 263.777L634.567 263.489L631.049 265.431L629.442 268.668L628.6 272.48L627.224 276.365L625.005 275.358L623.857 276.796L623.934 279.098L625.464 280.609L624.852 282.479L625.464 282.839L626.305 279.674L630.13 283.486L631.354 283.846L632.808 282.479L633.802 280.681L635.026 279.961L637.169 281.76L638.316 280.177L639.311 280.393L641.299 281.76L642.982 281.328L645.43 280.177L647.114 280.609L646.272 281.76L646.96 284.493L648.184 286.363L650.097 286.795L653.004 284.853L653.234 286.363L653.922 287.083L656.37 287.011V288.162L653.769 289.241L654.687 290.751L656.37 291.327L655.146 292.909L655.069 294.995L655.758 297.153L657.135 298.736L658.971 299.455L661.878 298.88L663.79 298.736V299.743L663.102 301.469L664.709 303.124L661.725 305.497L660.271 308.375L660.807 311.252L663.79 313.626L663.025 314.777L667.386 317.438L668.686 319.596L671.67 322.473L673.047 323.193L672.206 325.423L675.877 327.437L676.796 328.444L678.861 332.76L685.44 336.716L687.276 339.593L688.959 340.097L688.5 341.823L689.036 343.262L691.484 345.42L690.642 346.571L692.019 347.938L692.937 349.952L693.09 352.11L692.325 353.98L692.631 355.49L688.271 354.555L686.434 354.052L680.467 354.699L678.861 354.196L675.571 352.685L672.588 351.966L667.156 352.254L666.85 353.836L666.544 357.433L668.457 358.512L668.074 359.519L666.544 360.022L664.938 360.094L663.331 359.591L656.906 356.282L652.469 356.138L642.982 358.44L642.676 360.022L641.605 360.742L640.687 360.094L639.693 361.317L638.392 362.108L635.791 362.971L637.015 363.979L635.562 365.058L637.245 365.705L635.256 366.496L633.649 365.489L630.742 361.605L628.906 360.094L619.956 355.347L617.049 352.901L614.371 349.952L609.169 342.399L605.88 339.306L601.979 337.076L597.694 336.141L595.017 336.5L593.487 337.651L589.815 342.471L586.908 341.679H582.777L580.864 340.241L578.799 339.162L576.58 338.514L574.438 338.442L574.362 336.788L575.356 331.105L572.755 326.933L571.072 322.761L572.22 318.229L573.52 315.064L573.061 312.331V308.734L574.744 306.073L578.799 303.843L579.564 299.023L577.192 294.708L573.52 292.55L569.695 292.478L566.176 291.255L564.799 288.665L563.805 285.86L552.789 278.163L552.636 274.998L550.035 273.559L545.292 267.949L544.221 266.51L543.991 264.496L543.073 262.482L541.467 261.115L540.013 257.159L539.019 252.771L534.429 244.211L527.238 243.132L523.183 245.146L518.976 246.297L515.992 244.858L513.085 243.06L509.184 241.837L507.501 237.809L510.561 235.219L514.386 233.853L517.14 231.479L516.528 227.594L517.063 224.717L518.899 222.415L517.446 218.387L515.686 214.215L516.834 210.618L516.451 207.525L525.325 205.367L526.626 207.741L526.473 211.194L530.757 212.992L535.5 212.129L539.631 209.899L542.232 205.152L544.374 203.857L546.745 204.001L553.707 203.425L557.532 205.871L561.51 205.08L566.406 204.936L571.531 206.734L577.422 205.223L583.159 202.778L590.197 201.339L597.465 197.383L603.355 199.181L608.175 203.641L612 209.396L614.601 210.331L617.431 210.618L623.016 213.783L629.059 215.006L639.769 212.489L644.359 209.755L647.649 210.69L650.785 212.489L653.692 215.15L656.294 218.315L659.506 220.473L662.872 222.128L666.468 223.422L670.064 222.703L672.664 220.473L675.571 219.394H676.489Z" fill="#DBDFE1" stroke="white" stroke-width="2" stroke-linecap="round" stroke-linejoin="round"/>
<path id="BGR2255" d="M574.438 338.442L571.378 339.809L568.701 344.629L566.329 346.211L564.646 346.859L562.504 350.311L561.204 351.822L560.133 352.11L557.838 351.75L556.537 352.254L555.237 353.548L551.641 353.117L550.341 353.908L547.587 356.066L546.592 356.569L545.215 356.21L542.997 354.34L541.849 353.836L540.396 354.268L537.718 356.785L536.494 357.577L534.199 357.864L522.724 356.066L520.506 356.282L518.517 357.648L514.998 361.173L513.391 362.54L513.085 364.194L514.921 365.561L514.08 369.517L511.402 370.956L508.266 369.517L505.206 367.647L502.758 364.914L502.911 359.087L500.004 355.275L495.796 354.34L493.195 357.648L491.359 360.382L490.288 358.008L489.37 353.189L485.698 350.527L474.529 349.16L464.049 344.197L464.125 339.881L462.442 335.709L462.519 327.005L466.956 323.337L468.715 317.654L467.797 310.101L474.07 295.858L471.852 294.348L468.027 294.132L467.185 288.449L471.622 288.09L475.218 285.788L473.994 280.968L476.518 279.458L482.715 281.616L488.376 279.817L490.9 273.631L492.966 271.833L495.337 270.682L494.037 268.596L492.736 266.078L495.949 263.92L499.468 263.129L506.506 263.705L513.544 261.619L515.457 259.317L517.369 257.662L519.052 256.511L520.276 255.073L523.489 255.576L525.096 254.713L526.396 252.915L527.62 248.311L527.238 243.132L534.429 244.211L539.019 252.771L540.013 257.159L541.467 261.115L543.073 262.482L543.991 264.496L544.221 266.51L545.292 267.949L550.035 273.559L552.636 274.998L552.789 278.163L563.805 285.86L564.799 288.665L566.176 291.255L569.695 292.478L573.52 292.549L577.192 294.707L579.564 299.023L578.799 303.843L574.744 306.073L573.061 308.734V312.331L573.52 315.064L572.22 318.229L571.072 322.761L572.755 326.933L575.356 331.105L574.362 336.788L574.438 338.442Z" fill="#DBDFE1" stroke="white" stroke-width="2" stroke-linecap="round" stroke-linejoin="round"/>
<path id="BGR2256" d="M568.701 85.096L570.231 90.2032L567.171 92.7208L559.138 102.863L557.226 101.712L555.849 99.6264L554.472 99.6983L553.171 100.346L550.111 103.583L546.439 106.676L543.303 108.906L545.368 111.999L543.609 115.02L539.019 116.459L534.888 119.12L534.199 123.076L535.959 126.385L534.811 130.773L532.21 130.126H529.762L529.227 136.24L526.702 136.959L524.025 137.391L519.664 141.707H516.681L513.774 140.484H506.047L505.206 135.88L505.818 129.766L499.621 127.824L492.201 126.889L489.141 124.875L490.977 119.336L486.004 114.301L479.731 110.776L474.376 109.193L469.098 111.064L466.42 106.892L466.803 101.425L466.344 99.0509L467.491 97.6123L467.185 93.9437L468.562 91.1383L471.775 93.9437L476.365 90.7067L482.638 91.6419L484.245 89.0523L485.928 85.5995L488.452 84.3047L488.07 77.8308L490.288 75.0254L487.305 73.5149L483.633 73.1552L477.283 70.3498L477.589 64.0198L483.174 60.7109L485.851 54.7405L494.955 45.3173L499.239 44.6699L503.293 45.7489L506.583 49.2017L510.102 48.2665L513.238 46.0366L515.992 47.3314L518.134 50.1368L519.052 52.8702L521.959 58.0494L532.287 61.5741L536.341 62.0057L538.483 65.0268L540.243 67.9761L541.161 66.0339L543.073 65.7462L545.215 64.9549L546.898 62.4373L548.734 62.1495L549.576 65.2426L551.488 68.1199L553.783 69.7024L555.007 71.5008L556.767 73.0113L556.843 76.608L558.067 78.4063L560.209 77.0396L562.198 78.1905L565.105 82.2906L568.701 85.096Z" fill="#DBDFE1" stroke="white" stroke-width="2" stroke-linecap="round" stroke-linejoin="round"/>
<path id="BGR2257" d="M534.812 130.773L540.855 131.996L541.926 137.535L539.631 139.117L537.948 141.419L536.801 145.088L536.112 148.684L540.09 155.878L539.861 162.639H538.101L536.342 164.006L534.965 168.106L533.205 171.127L529.304 172.566L526.779 176.45L528.08 178.68L530.375 179.975L529.304 182.205L526.703 182.78L526.397 185.154L525.326 187.816L523.184 188.103L521.577 189.614L523.26 191.844L523.49 194.505L520.43 195.225L518.747 196.879L516.681 197.67L512.856 195.8L509.261 193.426L506.583 192.419L503.829 194.074L500.846 194.721L497.709 194.577L493.119 191.628L492.201 193.139L490.977 193.93L490.136 192.203L490.671 190.333L487.611 189.038L484.245 190.477L482.256 190.549L480.114 190.117V194.793L479.349 196.879L477.284 197.742L475.524 199.756L473.994 201.986L470.858 203.065L467.645 203.497L463.208 200.116L458.159 199.037L457.547 195.512L460.224 193.354L460.301 191.34L458.618 190.765L457.164 189.326L456.629 186.952L455.175 183.428L453.645 180.047L453.875 176.306L455.558 172.854L455.481 170.192L456.323 167.89L459.765 167.531L458.388 161.776L454.41 156.741L454.563 153.216L457.164 150.626L453.798 147.03L449.132 145.375L449.361 141.779L448.902 138.326L446.148 137.103L442.935 136.672L440.717 133.507L440.028 129.91L443.088 129.119L446.225 126.889L449.055 124.083L450.738 120.703L451.427 115.595L455.252 113.869L458.082 111.855L460.913 112.358L463.59 111.855L466.65 112.358L469.098 111.064L474.377 109.193L479.732 110.776L486.005 114.301L490.977 119.336L489.141 124.875L492.201 126.889L499.622 127.824L505.818 129.766L505.206 135.88L506.048 140.484H513.774L516.681 141.707H519.665L524.025 137.391L526.703 136.959L529.227 136.24L529.763 130.126H532.211L534.812 130.773Z" fill="#DBDFE1" stroke="white" stroke-width="2" stroke-linecap="round" stroke-linejoin="round"/>
<path id="BGR2258" d="M593.028 89.9155L599.913 95.3104L602.438 100.13L605.957 101.712L610.776 100.274L615.672 99.4106L618.503 101.065L619.727 105.453L609.935 108.114L603.432 113.581L609.399 115.452L608.022 118.976L606.569 120.918L608.022 122.141L609.552 124.299L605.192 130.27L602.744 132.931L601.673 135.88L601.749 139.837L603.891 142.642L605.498 145.304L602.514 147.605L599.148 148.756L599.225 152.713L598.995 155.806L594.788 156.741L590.504 157.172L587.75 159.115L587.291 162.999L590.504 165.948L594.558 167.459L594.405 171.199L590.504 173.285L588.438 176.666L591.269 179.831L587.903 182.421L593.487 184.291L594.099 188.103L588.362 189.47L581.094 193.283L578.187 195.369L580.023 199.253L583.16 202.778L577.422 205.223L571.532 206.734L566.406 204.936L561.51 205.079L557.532 205.871L553.707 203.425L546.746 204L544.374 203.857L542.232 205.151L539.631 209.899L535.5 212.129L530.757 212.992L526.473 211.194L526.626 207.741L525.326 205.367L516.452 207.525L514.004 202.202L516.681 197.67L518.747 196.879L520.43 195.225L523.49 194.505L523.26 191.844L521.577 189.614L523.184 188.103L525.326 187.816L526.397 185.154L526.703 182.78L529.304 182.205L530.375 179.975L528.08 178.68L526.779 176.45L529.304 172.566L533.205 171.127L534.965 168.106L536.342 164.006L538.101 162.639H539.861L540.09 155.878L536.112 148.684L536.801 145.088L537.948 141.419L539.631 139.117L541.926 137.535L540.855 131.996L534.812 130.773L535.959 126.385L534.2 123.076L534.888 119.12L539.019 116.459L543.609 115.02L545.369 111.999L543.303 108.906L546.44 106.676L550.112 103.583L553.172 100.346L554.472 99.6983L555.849 99.6264L557.226 101.712L559.139 102.863L567.171 92.7208L570.231 90.2032L568.701 85.096L575.204 81.5713L580.1 84.5205L584.919 89.7716L593.028 89.9155Z" fill="#DBDFE1" stroke="white" stroke-width="2" stroke-linecap="round" stroke-linejoin="round"/>
<path id="BGR2259" d="M701.199 139.621L700.817 139.477L696.533 139.909L692.249 139.98L689.724 136.887L686.435 133.65L682.533 133.435L678.938 135.017L676.949 137.175L674.501 137.966L667.233 134.514L661.266 127.536L658.971 123.58L655.835 120.918L651.321 120.055L646.502 115.811L642.294 110.057L640.382 110.776L639.081 113.797L636.786 114.876L634.338 115.164L632.043 116.89L628.983 115.452L628.218 111.639L624.546 106.82L619.727 105.453L618.503 101.065L615.672 99.4106L610.776 100.274L605.957 101.712L602.438 100.13L599.913 95.3104L593.028 89.9155L595.4 90.4909L597.542 89.6277L594.635 85.3118L594.941 78.2624L600.831 73.1552L602.361 69.9902L604.809 68.6954L610.394 73.0113L615.749 72.9394L614.219 65.0987L617.279 62.7969L621.104 62.0776L627.3 64.2356L632.196 60.8547L631.967 55.8914L633.344 51.0719L636.404 50.2806L639.158 52.5825L642.753 51.9351L643.059 48.9139L642.371 47.0437L644.666 46.9717L646.884 44.526L646.272 41.0013L648.567 39.203L651.857 39.275L656.676 45.4612L664.632 43.5909L673.124 39.0592L679.856 38.3398L682.763 42.9435L688.271 61.2863L692.402 64.3075L717.57 75.1693L743.657 79.4133L761.175 78.4782L760.869 80.6362L760.487 99.9141L760.793 101.928L762.093 104.734L764.159 108.402L764.235 110.704L763.164 114.732L761.175 119.767L758.957 124.011L757.121 125.81L755.897 126.457L750.236 131.492L749.088 133.075L748.4 135.017L748.323 137.751L746.64 135.593L741.209 132.715L738.684 130.27L735.548 129.119L729.81 128.04L727.133 128.543L722.543 130.773L720.248 131.277L712.292 130.989L709.767 131.277L705.101 133.866L701.811 138.254L701.199 139.621Z" fill="#DBDFE1" stroke="white" stroke-width="2" stroke-linecap="round" stroke-linejoin="round"/>
<path id="BGR2260" d="M701.199 139.621L694.39 156.381L692.784 158.899L690.642 160.41L682.303 162.568L680.926 163.431L678.861 163.718V164.797L683.145 167.819L683.986 168.97L683.833 170.84L681.462 177.673L679.779 185.298L678.937 186.737L676.948 188.895L676.413 190.693L676.642 194.218L678.478 201.339L678.861 204.576L678.249 215.222L678.861 217.524L676.489 219.394H675.571L672.664 220.473L670.063 222.703L666.468 223.422L662.872 222.128L659.506 220.473L656.293 218.315L653.692 215.15L650.785 212.489L647.649 210.69L644.359 209.755L639.769 212.489L629.059 215.006L623.016 213.783L617.431 210.618L614.601 210.331L612 209.396L608.175 203.641L603.355 199.181L597.465 197.383L590.197 201.339L583.159 202.778L580.023 199.253L578.187 195.369L581.094 193.283L588.361 189.47L594.099 188.104L593.487 184.291L587.902 182.421L591.268 179.831L588.438 176.666L590.503 173.285L594.405 171.199L594.558 167.459L590.503 165.948L587.29 162.999L587.749 159.115L590.503 157.173L594.787 156.741L598.995 155.806L599.224 152.713L599.148 148.756L602.514 147.606L605.497 145.304L603.891 142.642L601.749 139.837L601.672 135.881L602.743 132.931L605.191 130.27L609.552 124.299L608.022 122.141L606.568 120.919L608.022 118.976L609.399 115.452L603.432 113.581L609.934 108.115L619.726 105.453L624.546 106.82L628.218 111.639L628.983 115.452L632.043 116.89L634.338 115.164L636.786 114.876L639.081 113.797L640.381 110.776L642.294 110.057L646.501 115.811L651.321 120.055L655.834 120.919L658.971 123.58L661.266 127.536L667.233 134.514L674.5 137.967L676.948 137.175L678.937 135.017L682.533 133.435L686.434 133.651L689.724 136.888L692.248 139.981L696.532 139.909L700.816 139.477L701.199 139.621Z" fill="#DBDFE1" stroke="white" stroke-width="2" stroke-linecap="round" stroke-linejoin="round"/>
<path id="BGR2261" d="M651.857 39.2754L648.567 39.2035L646.272 41.0018L646.884 44.5265L644.666 46.9722L642.371 47.0441L643.059 48.9144L642.753 51.9356L639.158 52.5829L636.404 50.2811L633.344 51.0724L631.967 55.8918L632.196 60.8552L627.3 64.236L621.104 62.078L617.279 62.7974L614.219 65.0992L615.749 72.9398L610.394 73.0118L604.809 68.6958L602.361 69.9906L600.831 73.1556L594.941 78.2629L594.635 85.3122L597.542 89.6282L595.4 90.4914L593.028 89.9159L584.919 89.7721L580.1 84.521L575.204 81.5717L568.701 85.0964L565.106 82.2911L562.199 78.1909L560.21 77.04L558.068 78.4067L556.844 76.6084L556.767 73.0118L555.008 71.5012L553.784 69.7029L551.489 68.1204L549.576 65.2431L548.735 62.15L546.899 62.4377L545.216 64.9553L543.074 65.7466L541.161 66.0343L540.243 67.9765L538.484 65.0273L536.342 62.0061L532.287 61.5745L521.96 58.0498L519.053 52.8707L518.135 50.1372L515.993 47.3319L513.239 46.0371L510.102 48.267L506.583 49.2021L503.294 45.7494L499.239 44.6704L494.955 45.3178L493.349 38.9877L492.507 34.1682L489.294 33.6647L487.458 29.9961L487.152 28.4856L521.577 23.6661L525.632 22.2994L529.227 21.7239L531.675 20.2853L533.052 19.9975H538.56L542.921 18.7027L554.472 12.2288L568.778 10.8621L571.991 8.91992L580.865 14.171L593.717 16.6167L596.318 17.9834L599.225 17.6957L601.443 19.2782L600.831 22.9468L603.432 25.6802L610.317 28.7733L611.771 29.9961L614.142 33.9524L615.443 34.8156L638.699 34.6718L645.89 32.5138L648.644 33.4489L651.092 38.2684L651.857 39.2754Z" fill="#DBDFE1" stroke="white" stroke-width="2" stroke-linecap="round" stroke-linejoin="round"/>
<path id="BGR2262" d="M494.955 45.3176L485.852 54.7407L483.174 60.7111L477.59 64.02L477.284 70.3501L483.633 73.1554L487.305 73.5151L490.289 75.0257L488.07 77.8311L488.453 84.305L485.928 85.5998L484.245 89.0525L482.639 91.6421L476.366 90.707L471.776 93.9439L468.563 91.1386L467.186 93.9439L467.492 97.6125L466.344 99.0511L466.803 101.425L466.421 106.892L469.098 111.064L466.65 112.359L463.59 111.855L460.913 112.359L458.082 111.855L455.252 113.869L451.427 115.596L450.738 120.703L449.055 124.084L446.225 126.889L443.088 129.119L440.028 129.91L440.717 133.507L442.935 136.672L446.148 137.103L448.902 138.326L449.361 141.779L449.132 145.376L444.695 145.088L440.487 143.577L439.416 139.837L438.728 136.456L435.209 136.384L431.766 138.039L428.63 138.182L425.417 137.463L421.209 137.103L417.078 135.953L414.707 133.866L412.871 131.924L410.958 131.996L410.04 130.126H407.057L405.527 133.075L398.565 130.558L391.757 124.084L392.598 119.84L393.822 115.38L391.986 114.373L390.303 116.171L388.391 115.883L388.238 113.941L381.965 109.481L381.353 106.029L384.03 104.086L386.631 98.6196L384.413 91.6421L383.495 89.8438L384.26 89.6999L389.768 89.9876L392.522 89.6999L394.817 88.6209L397.112 88.1174L399.866 86.9665L402.467 85.4559L404.379 83.7295L406.521 82.2909L414.86 82.0031L419.909 79.9171L422.739 75.4573L422.969 74.8818L427.023 70.9255L430.695 68.9834L436.433 62.0778L437.427 59.776L438.575 57.9058L453.263 47.7633L454.181 45.2456L456.323 42.2245L460.836 37.405L465.044 35.247L474.836 32.8732L484.475 28.845L487.152 28.4854L487.458 29.9959L489.294 33.6645L492.507 34.168L493.349 38.9875L494.955 45.3176Z" fill="#DBDFE1" stroke="white" stroke-width="2" stroke-linecap="round" stroke-linejoin="round"/>
<path id="BGR3002" d="M173.731 323.768L174.955 326.789L177.327 328.588L179.469 330.746L180.234 333.911L179.851 336.356L178.398 338.155V341.607L180.769 344.269L177.25 348.081L174.19 354.915L174.343 358.008L173.655 360.526L175.108 363.331L177.021 365.777L177.709 372.754L180.922 378.437L183.906 380.235L186.583 382.825L188.725 383.256L191.097 382.681L192.627 384.479L193.927 386.925L207.774 395.917L209.227 398.578L211.522 399.585L213.282 400.448L214.429 402.39L217.642 404.476L215.271 407.21L212.134 409.152L226.746 420.877L224.833 422.46L224.298 423.467L223.762 425.84L222.538 426.344L221.467 424.833L220.473 424.114L216.877 423.107L211.981 422.675L208.462 424.258L209.074 432.602L208.998 433.897L208.233 435.048L206.856 435.695L205.479 435.407L202.725 433.681L202.266 434.832L200.353 435.767L198.364 437.637L196.528 437.781L190.791 433.825L189.796 433.681L186.507 436.558L184.518 437.494L181.993 438.069L179.469 438.357L177.25 438.285L175.491 439.076L172.737 443.392L170.748 443.896L166.693 443.032L162.639 443.104L160.344 443.896L157.207 446.845L155.371 447.996L151.317 447.852L143.284 443.896L131.197 443.536L128.902 444.255L125.23 446.845L123.012 447.924L120.411 448.211L119.187 447.061L118.039 445.334L115.744 443.824L113.602 443.967L110.772 445.118L108.018 446.773L106.258 448.355L105.876 449.506L105.646 452.312L105.034 453.75L102.586 455.549L99.832 456.34L94.7065 456.915L70.5325 453.391L73.4395 451.233L73.8985 448.355L73.2865 445.118L73.057 441.881L73.4395 440.946L74.8165 439.292L74.9695 437.709L74.128 435.407L73.7455 422.316L74.434 418.863L74.128 417.856L72.598 415.266L72.3685 413.18L72.5215 410.95L73.4395 407.066L74.0515 406.563L76.6525 405.627L77.8 402.678L80.4775 398.578L81.8545 394.981L81.778 391.385L79.5595 388.148L78.259 387.572L75.4285 387.428L74.0515 386.853L73.2865 385.702L70.6855 379.876L69.385 374.625L68.62 372.826L66.0955 370.884L65.7895 369.733L65.6365 366.424L64.336 362.9L63.418 359.303L63.265 355.634L62.959 353.98L61.9645 352.254L61.8115 350.096L63.418 348.225L65.4835 346.139L68.0845 346.571L69.0025 343.478L72.598 337.939L75.658 337.795L77.7235 340.744L81.319 340.457L84.9145 341.679L88.051 343.765L91.876 343.406L95.6245 342.327L99.067 340.025L105.111 337.076H107.788L110.083 337.292L112.455 336.932L127.908 341.607L134.869 340.528L140.913 335.925L147.492 338.227L151.546 333.551L153.918 327.94L158.431 327.365L161.721 326.142L165.852 325.423L168.223 326.43L170.442 325.423L171.819 323.696L173.731 323.768Z" fill="#DBDFE1" stroke="white" stroke-width="2" stroke-linecap="round" stroke-linejoin="round"/>
<g id="place_black_24dp 2">
<g id="Group">
<path id="Vector" d="M297.83 285.221C290.911 285.221 284.651 290.523 284.651 298.724C284.651 303.961 288.687 310.12 296.742 317.217C297.368 317.761 298.307 317.761 298.933 317.217C306.972 310.12 311.008 303.961 311.008 298.724C311.008 290.523 304.748 285.221 297.83 285.221ZM297.83 301.688C296.018 301.688 294.535 300.206 294.535 298.395C294.535 296.583 296.018 295.101 297.83 295.101C299.642 295.101 301.124 296.583 301.124 298.395C301.124 300.206 299.642 301.688 297.83 301.688Z" fill="#006FC3"/>
</g>
</g>
<g id="place_black_24dp 3" clip-path="url(#clip1_335_2928)">
<g id="Group_2">
<path id="Vector_2" d="M461.24 236.256C456.167 236.256 451.576 240.144 451.576 246.158C451.576 249.999 454.536 254.515 460.443 259.72C460.902 260.119 461.591 260.119 462.05 259.72C467.945 254.515 470.904 249.999 470.904 246.158C470.904 240.144 466.314 236.256 461.24 236.256ZM461.24 248.332C459.911 248.332 458.824 247.245 458.824 245.917C458.824 244.589 459.911 243.502 461.24 243.502C462.569 243.502 463.656 244.589 463.656 245.917C463.656 247.245 462.569 248.332 461.24 248.332Z" fill="#006FC3"/>
</g>
</g>
<g id="place_black_24dp 9" clip-path="url(#clip2_335_2928)">
<g id="Group_3">
<path id="Vector_3" d="M73.1397 239.55C68.066 239.55 63.4756 243.438 63.4756 249.452C63.4756 253.293 66.4352 257.809 72.3424 263.014C72.8014 263.413 73.49 263.413 73.949 263.014C79.8441 257.809 82.8037 253.293 82.8037 249.452C82.8037 243.438 78.2133 239.55 73.1397 239.55ZM73.1397 251.626C71.8109 251.626 70.7236 250.539 70.7236 249.211C70.7236 247.882 71.8109 246.796 73.1397 246.796C74.4685 246.796 75.5557 247.882 75.5557 249.211C75.5557 250.539 74.4685 251.626 73.1397 251.626Z" fill="#006FC3"/>
</g>
</g>
<g id="place_black_24dp 7" clip-path="url(#clip3_335_2928)">
<g id="Group_4">
<path id="Vector_4" d="M707.674 82.7773C702.6 82.7773 698.01 86.6659 698.01 92.6799C698.01 96.5202 700.969 101.037 706.877 106.242C707.336 106.64 708.024 106.64 708.483 106.242C714.378 101.037 717.338 96.5202 717.338 92.6799C717.338 86.6659 712.748 82.7773 707.674 82.7773ZM707.674 94.8537C706.345 94.8537 705.258 93.7668 705.258 92.4384C705.258 91.11 706.345 90.0231 707.674 90.0231C709.003 90.0231 710.09 91.11 710.09 92.4384C710.09 93.7668 709.003 94.8537 707.674 94.8537Z" fill="#006FC3"/>
</g>
</g>
<g id="place_black_24dp 4">
<g id="Group_5">
<path id="Vector_5" d="M405.232 144.038C398.775 144.038 392.933 148.987 392.933 156.641C392.933 161.529 396.699 167.277 404.218 173.902C404.802 174.409 405.678 174.409 406.262 173.902C413.765 167.277 417.532 161.529 417.532 156.641C417.532 148.987 411.69 144.038 405.232 144.038ZM405.232 159.408C403.541 159.408 402.157 158.025 402.157 156.334C402.157 154.643 403.541 153.26 405.232 153.26C406.924 153.26 408.307 154.643 408.307 156.334C408.307 158.025 406.924 159.408 405.232 159.408Z" fill="#006FC3"/>
</g>
</g>
<g id="place_black_24dp 10" clip-path="url(#clip4_335_2928)">
<g id="Group_6">
<path id="Vector_6" d="M291.569 107.205C287.764 107.205 284.321 110.122 284.321 114.632C284.321 117.512 286.541 120.9 290.971 124.803C291.316 125.102 291.832 125.102 292.176 124.803C296.598 120.9 298.817 117.512 298.817 114.632C298.817 110.122 295.375 107.205 291.569 107.205ZM291.569 116.262C290.573 116.262 289.757 115.447 289.757 114.451C289.757 113.455 290.573 112.639 291.569 112.639C292.566 112.639 293.381 113.455 293.381 114.451C293.381 115.447 292.566 116.262 291.569 116.262Z" fill="#006FC3"/>
</g>
</g>
<g id="place_black_24dp 27" clip-path="url(#clip5_335_2928)">
<g id="Group_7">
<path id="Vector_7" d="M192.732 84.8086C188.927 84.8086 185.484 87.725 185.484 92.2355C185.484 95.1157 187.704 98.5031 192.134 102.407C192.479 102.706 192.995 102.706 193.339 102.407C197.761 98.5031 199.981 95.1157 199.981 92.2355C199.981 87.725 196.538 84.8086 192.732 84.8086ZM192.732 93.8658C191.736 93.8658 190.92 93.0507 190.92 92.0544C190.92 91.0581 191.736 90.2429 192.732 90.2429C193.729 90.2429 194.544 91.0581 194.544 92.0544C194.544 93.0507 193.729 93.8658 192.732 93.8658Z" fill="#006FC3"/>
</g>
</g>
<g id="place_black_24dp 11" clip-path="url(#clip6_335_2928)">
<g id="Group_8">
<path id="Vector_8" d="M460.252 52.5322C456.447 52.5322 453.004 55.4487 453.004 59.9592C453.004 62.8394 455.224 66.2268 459.654 70.1304C459.998 70.4293 460.515 70.4293 460.859 70.1304C465.28 66.2268 467.5 62.8394 467.5 59.9592C467.5 55.4487 464.057 52.5322 460.252 52.5322ZM460.252 61.5895C459.255 61.5895 458.44 60.7743 458.44 59.778C458.44 58.7817 459.255 57.9666 460.252 57.9666C461.249 57.9666 462.064 58.7817 462.064 59.778C462.064 60.7743 461.249 61.5895 460.252 61.5895Z" fill="#006FC3"/>
</g>
</g>
<g id="place_black_24dp 12" clip-path="url(#clip7_335_2928)">
<g id="Group_9">
<path id="Vector_9" d="M514.941 82.1738C511.136 82.1738 507.693 85.0903 507.693 89.6008C507.693 92.481 509.913 95.8684 514.343 99.772C514.688 100.071 515.204 100.071 515.548 99.772C519.97 95.8684 522.189 92.481 522.189 89.6008C522.189 85.0903 518.747 82.1738 514.941 82.1738ZM514.941 91.2311C513.945 91.2311 513.129 90.4159 513.129 89.4196C513.129 88.4233 513.945 87.6082 514.941 87.6082C515.938 87.6082 516.753 88.4233 516.753 89.4196C516.753 90.4159 515.938 91.2311 514.941 91.2311Z" fill="#006FC3"/>
</g>
</g>
<g id="place_black_24dp 13" clip-path="url(#clip8_335_2928)">
<g id="Group_10">
<path id="Vector_10" d="M582.151 41.9932C578.346 41.9932 574.903 44.9096 574.903 49.4201C574.903 52.3003 577.123 55.6877 581.553 59.5914C581.898 59.8903 582.414 59.8903 582.758 59.5914C587.18 55.6877 589.399 52.3003 589.399 49.4201C589.399 44.9096 585.957 41.9932 582.151 41.9932ZM582.151 51.0504C581.155 51.0504 580.339 50.2352 580.339 49.239C580.339 48.2427 581.155 47.4275 582.151 47.4275C583.148 47.4275 583.963 48.2427 583.963 49.239C583.963 50.2352 583.148 51.0504 582.151 51.0504Z" fill="#006FC3"/>
</g>
</g>
<g id="place_black_24dp 14" clip-path="url(#clip9_335_2928)">
<g id="Group_11">
<path id="Vector_11" d="M649.36 136.188C645.555 136.188 642.112 139.104 642.112 143.614C642.112 146.495 644.332 149.882 648.762 153.786C649.107 154.085 649.623 154.085 649.967 153.786C654.389 149.882 656.608 146.495 656.608 143.614C656.608 139.104 653.166 136.188 649.36 136.188ZM649.36 145.245C648.364 145.245 647.548 144.43 647.548 143.433C647.548 142.437 648.364 141.622 649.36 141.622C650.357 141.622 651.172 142.437 651.172 143.433C651.172 144.43 650.357 145.245 649.36 145.245Z" fill="#006FC3"/>
</g>
</g>
<g id="place_black_24dp 15" clip-path="url(#clip10_335_2928)">
<g id="Group_12">
<path id="Vector_12" d="M612.461 233.677C608.656 233.677 605.213 236.593 605.213 241.104C605.213 243.984 607.433 247.371 611.863 251.275C612.207 251.574 612.724 251.574 613.068 251.275C617.489 247.371 619.709 243.984 619.709 241.104C619.709 236.593 616.266 233.677 612.461 233.677ZM612.461 242.734C611.464 242.734 610.649 241.919 610.649 240.923C610.649 239.926 611.464 239.111 612.461 239.111C613.458 239.111 614.273 239.926 614.273 240.923C614.273 241.919 613.458 242.734 612.461 242.734Z" fill="#006FC3"/>
</g>
</g>
<g id="place_black_24dp 16" clip-path="url(#clip11_335_2928)">
<g id="Group_13">
<path id="Vector_13" d="M564.36 155.29C560.555 155.29 557.112 158.206 557.112 162.717C557.112 165.597 559.332 168.985 563.762 172.888C564.107 173.187 564.623 173.187 564.967 172.888C569.389 168.985 571.608 165.597 571.608 162.717C571.608 158.206 568.166 155.29 564.36 155.29ZM564.36 164.347C563.364 164.347 562.548 163.532 562.548 162.536C562.548 161.54 563.364 160.724 564.36 160.724C565.357 160.724 566.172 161.54 566.172 162.536C566.172 163.532 565.357 164.347 564.36 164.347Z" fill="#006FC3"/>
</g>
</g>
<g id="place_black_24dp 17" clip-path="url(#clip12_335_2928)">
<g id="Group_14">
<path id="Vector_14" d="M486.608 157.267C482.803 157.267 479.36 160.183 479.36 164.694C479.36 167.574 481.58 170.961 486.01 174.865C486.355 175.164 486.871 175.164 487.215 174.865C491.637 170.961 493.856 167.574 493.856 164.694C493.856 160.183 490.414 157.267 486.608 157.267ZM486.608 166.324C485.612 166.324 484.796 165.509 484.796 164.512C484.796 163.516 485.612 162.701 486.608 162.701C487.605 162.701 488.42 163.516 488.42 164.512C488.42 165.509 487.605 166.324 486.608 166.324Z" fill="#006FC3"/>
</g>
</g>
<g id="place_black_24dp 18" clip-path="url(#clip13_335_2928)">
<g id="Group_15">
<path id="Vector_15" d="M427.307 368.053C423.501 368.053 420.059 370.969 420.059 375.48C420.059 378.36 422.278 381.747 426.709 385.651C427.053 385.95 427.569 385.95 427.914 385.651C432.335 381.747 434.555 378.36 434.555 375.48C434.555 370.969 431.112 368.053 427.307 368.053ZM427.307 377.11C426.31 377.11 425.495 376.295 425.495 375.299C425.495 374.302 426.31 373.487 427.307 373.487C428.303 373.487 429.119 374.302 429.119 375.299C429.119 376.295 428.303 377.11 427.307 377.11Z" fill="#006FC3"/>
</g>
</g>
<g id="place_black_24dp 19" clip-path="url(#clip14_335_2928)">
<g id="Group_16">
<path id="Vector_16" d="M390.407 418.773C386.602 418.773 383.159 421.69 383.159 426.2C383.159 429.081 385.379 432.468 389.809 436.372C390.154 436.671 390.67 436.671 391.014 436.372C395.436 432.468 397.655 429.081 397.655 426.2C397.655 421.69 394.212 418.773 390.407 418.773ZM390.407 427.831C389.411 427.831 388.595 427.016 388.595 426.019C388.595 425.023 389.411 424.208 390.407 424.208C391.404 424.208 392.219 425.023 392.219 426.019C392.219 427.016 391.404 427.831 390.407 427.831Z" fill="#006FC3"/>
</g>
</g>
<g id="place_black_24dp 20" clip-path="url(#clip15_335_2928)">
<g id="Group_17">
<path id="Vector_17" d="M297.5 392.425C293.695 392.425 290.252 395.341 290.252 399.852C290.252 402.732 292.472 406.119 296.902 410.023C297.246 410.322 297.763 410.322 298.107 410.023C302.528 406.119 304.748 402.732 304.748 399.852C304.748 395.341 301.305 392.425 297.5 392.425ZM297.5 401.482C296.503 401.482 295.688 400.667 295.688 399.671C295.688 398.674 296.503 397.859 297.5 397.859C298.497 397.859 299.312 398.674 299.312 399.671C299.312 400.667 298.497 401.482 297.5 401.482Z" fill="#006FC3"/>
</g>
</g>
<g id="place_black_24dp 21" clip-path="url(#clip16_335_2928)">
<g id="Group_18">
<path id="Vector_18" d="M220.407 310.745C216.602 310.745 213.159 313.662 213.159 318.172C213.159 321.052 215.379 324.44 219.809 328.343C220.154 328.642 220.67 328.642 221.014 328.343C225.436 324.44 227.655 321.052 227.655 318.172C227.655 313.662 224.212 310.745 220.407 310.745ZM220.407 319.802C219.411 319.802 218.595 318.987 218.595 317.991C218.595 316.995 219.411 316.179 220.407 316.179C221.404 316.179 222.219 316.995 222.219 317.991C222.219 318.987 221.404 319.802 220.407 319.802Z" fill="#006FC3"/>
</g>
</g>
<g id="place_black_24dp 22" clip-path="url(#clip17_335_2928)">
<g id="Group_19">
<path id="Vector_19" d="M125.523 233.677C121.718 233.677 118.275 236.593 118.275 241.104C118.275 243.984 120.495 247.371 124.925 251.275C125.27 251.574 125.786 251.574 126.13 251.275C130.552 247.371 132.772 243.984 132.772 241.104C132.772 236.593 129.329 233.677 125.523 233.677ZM125.523 242.734C124.527 242.734 123.711 241.919 123.711 240.923C123.711 239.926 124.527 239.111 125.523 239.111C126.52 239.111 127.335 239.926 127.335 240.923C127.335 241.919 126.52 242.734 125.523 242.734Z" fill="#006FC3"/>
</g>
</g>
<g id="place_black_24dp 23" clip-path="url(#clip18_335_2928)">
<g id="Group_20">
<path id="Vector_20" d="M103.779 101.936C99.9741 101.936 96.5312 104.852 96.5312 109.362C96.5312 112.243 98.751 115.63 103.181 119.534C103.526 119.833 104.042 119.833 104.386 119.534C108.808 115.63 111.027 112.243 111.027 109.362C111.027 104.852 107.585 101.936 103.779 101.936ZM103.779 110.993C102.783 110.993 101.967 110.178 101.967 109.181C101.967 108.185 102.783 107.37 103.779 107.37C104.776 107.37 105.591 108.185 105.591 109.181C105.591 110.178 104.776 110.993 103.779 110.993Z" fill="#006FC3"/>
</g>
</g>
<g id="place_black_24dp 24" clip-path="url(#clip19_335_2928)">
<g id="Group_21">
<path id="Vector_21" d="M37.8877 52.5322C34.0825 52.5322 30.6396 55.4487 30.6396 59.9592C30.6396 62.8394 32.8594 66.2268 37.2897 70.1304C37.634 70.4293 38.1505 70.4293 38.4947 70.1304C42.9161 66.2268 45.1358 62.8394 45.1358 59.9592C45.1358 55.4487 41.6929 52.5322 37.8877 52.5322ZM37.8877 61.5895C36.8911 61.5895 36.0757 60.7743 36.0757 59.778C36.0757 58.7817 36.8911 57.9666 37.8877 57.9666C38.8843 57.9666 39.6997 58.7817 39.6997 59.778C39.6997 60.7743 38.8843 61.5895 37.8877 61.5895Z" fill="#006FC3"/>
</g>
</g>
<g id="place_black_24dp 25" clip-path="url(#clip20_335_2928)">
<g id="Group_22">
<path id="Vector_22" d="M72.8096 304.158C69.0044 304.158 65.5615 307.075 65.5615 311.585C65.5615 314.465 67.7812 317.853 72.2116 321.756C72.5559 322.055 73.0723 322.055 73.4166 321.756C77.8379 317.853 80.0576 314.465 80.0576 311.585C80.0576 307.075 76.6148 304.158 72.8096 304.158ZM72.8096 313.215C71.813 313.215 70.9976 312.4 70.9976 311.404C70.9976 310.408 71.813 309.593 72.8096 309.593C73.8062 309.593 74.6216 310.408 74.6216 311.404C74.6216 312.4 73.8062 313.215 72.8096 313.215Z" fill="#006FC3"/>
</g>
</g>
<g id="place_black_24dp 26" clip-path="url(#clip21_335_2928)">
<g id="Group_23">
<path id="Vector_23" d="M123.547 405.6C119.742 405.6 116.299 408.516 116.299 413.027C116.299 415.907 118.519 419.294 122.949 423.198C123.293 423.497 123.81 423.497 124.154 423.198C128.575 419.294 130.795 415.907 130.795 413.027C130.795 408.516 127.352 405.6 123.547 405.6ZM123.547 414.657C122.55 414.657 121.735 413.842 121.735 412.845C121.735 411.849 122.55 411.034 123.547 411.034C124.543 411.034 125.359 411.849 125.359 412.845C125.359 413.842 124.543 414.657 123.547 414.657Z" fill="#006FC3"/>
</g>
</g>
<g id="place_black_24dp 5">
<g id="Group_24">
<path id="Vector_24" d="M283.992 185.536C277.535 185.536 271.692 190.485 271.692 198.139C271.692 203.027 275.459 208.775 282.977 215.4C283.562 215.907 284.438 215.907 285.022 215.4C292.525 208.775 296.292 203.027 296.292 198.139C296.292 190.485 290.449 185.536 283.992 185.536ZM283.992 200.906C282.301 200.906 280.917 199.523 280.917 197.832C280.917 196.141 282.301 194.758 283.992 194.758C285.683 194.758 287.067 196.141 287.067 197.832C287.067 199.523 285.683 200.906 283.992 200.906Z" fill="#006FC3"/>
</g>
</g>
<g id="place_black_24dp 6">
<g id="Group_25">
<path id="Vector_25" d="M525.813 293.564C519.356 293.564 513.514 298.514 513.514 306.168C513.514 311.055 517.28 316.804 524.799 323.428C525.383 323.935 526.259 323.935 526.844 323.428C534.346 316.804 538.113 311.055 538.113 306.168C538.113 298.514 532.271 293.564 525.813 293.564ZM525.813 308.934C524.122 308.934 522.738 307.551 522.738 305.86C522.738 304.17 524.122 302.786 525.813 302.786C527.505 302.786 528.888 304.17 528.888 305.86C528.888 307.551 527.505 308.934 525.813 308.934Z" fill="#006FC3"/>
</g>
</g>
<g id="place_black_24dp 8">
<g id="Group_26">
<path id="Vector_26" d="M382.17 267.875C375.712 267.875 369.87 272.824 369.87 280.478C369.87 285.366 373.637 291.114 381.155 297.739C381.739 298.246 382.616 298.246 383.2 297.739C390.703 291.114 394.47 285.366 394.47 280.478C394.47 272.824 388.627 267.875 382.17 267.875ZM382.17 283.245C380.479 283.245 379.095 281.862 379.095 280.171C379.095 278.48 380.479 277.097 382.17 277.097C383.861 277.097 385.245 278.48 385.245 280.171C385.245 281.862 383.861 283.245 382.17 283.245Z" fill="#006FC3"/>
</g>
</g>
</g>
<defs>
<clipPath id="clip0_335_2928">
<rect width="765" height="469" fill="white"/>
</clipPath>
<clipPath id="clip1_335_2928">
<rect width="28.9922" height="28.9831" fill="white" transform="translate(446.744 233.841)"/>
</clipPath>
<clipPath id="clip2_335_2928">
<rect width="28.9922" height="28.9832" fill="white" transform="translate(58.6436 237.135)"/>
</clipPath>
<clipPath id="clip3_335_2928">
<rect width="28.9923" height="28.9831" fill="white" transform="translate(693.178 80.3623)"/>
</clipPath>
<clipPath id="clip4_335_2928">
<rect width="21.7442" height="21.7374" fill="white" transform="translate(280.697 105.394)"/>
</clipPath>
<clipPath id="clip5_335_2928">
<rect width="21.7442" height="21.7374" fill="white" transform="translate(181.86 82.9971)"/>
</clipPath>
<clipPath id="clip6_335_2928">
<rect width="21.7442" height="21.7374" fill="white" transform="translate(449.38 50.7207)"/>
</clipPath>
<clipPath id="clip7_335_2928">
<rect width="21.7441" height="21.7374" fill="white" transform="translate(504.069 80.3623)"/>
</clipPath>
<clipPath id="clip8_335_2928">
<rect width="21.7442" height="21.7374" fill="white" transform="translate(571.279 40.1816)"/>
</clipPath>
<clipPath id="clip9_335_2928">
<rect width="21.7442" height="21.7374" fill="white" transform="translate(638.488 134.376)"/>
</clipPath>
<clipPath id="clip10_335_2928">
<rect width="21.7442" height="21.7374" fill="white" transform="translate(601.589 231.865)"/>
</clipPath>
<clipPath id="clip11_335_2928">
<rect width="21.7441" height="21.7374" fill="white" transform="translate(553.488 153.479)"/>
</clipPath>
<clipPath id="clip12_335_2928">
<rect width="21.7442" height="21.7374" fill="white" transform="translate(475.736 155.455)"/>
</clipPath>
<clipPath id="clip13_335_2928">
<rect width="21.7442" height="21.7374" fill="white" transform="translate(416.435 366.241)"/>
</clipPath>
<clipPath id="clip14_335_2928">
<rect width="21.7442" height="21.7374" fill="white" transform="translate(379.535 416.962)"/>
</clipPath>
<clipPath id="clip15_335_2928">
<rect width="21.7442" height="21.7374" fill="white" transform="translate(286.628 390.613)"/>
</clipPath>
<clipPath id="clip16_335_2928">
<rect width="21.7442" height="21.7374" fill="white" transform="translate(209.535 308.934)"/>
</clipPath>
<clipPath id="clip17_335_2928">
<rect width="21.7442" height="21.7374" fill="white" transform="translate(114.651 231.865)"/>
</clipPath>
<clipPath id="clip18_335_2928">
<rect width="21.7442" height="21.7374" fill="white" transform="translate(92.9072 100.124)"/>
</clipPath>
<clipPath id="clip19_335_2928">
<rect width="21.7442" height="21.7374" fill="white" transform="translate(27.0156 50.7207)"/>
</clipPath>
<clipPath id="clip20_335_2928">
<rect width="21.7442" height="21.7374" fill="white" transform="translate(61.9375 302.347)"/>
</clipPath>
<clipPath id="clip21_335_2928">
<rect width="21.7442" height="21.7374" fill="white" transform="translate(112.675 403.788)"/>
</clipPath>
</defs>
</svg>
