<svg width="36" height="26" viewBox="0 0 36 26" fill="none" xmlns="http://www.w3.org/2000/svg">
<path d="M34.9451 1.68387C33.5382 0.277177 31.2496 0.277328 29.8429 1.68387L25.428 6.0988H1.12939C0.505665 6.0988 0 6.60446 0 7.22818V24.2419C0 24.8656 0.505665 25.3713 1.12939 25.3713H27.5892C28.2129 25.3713 28.7186 24.8656 28.7186 24.2419V13.0125L34.9451 6.78599C36.3517 5.37923 36.3517 3.09048 34.9451 1.68387ZM32.3939 2.13306C32.9554 2.13306 33.4833 2.35164 33.8802 2.74873C34.6624 3.53094 34.6974 4.7811 33.9863 5.60601L31.0229 2.64257C31.4041 2.31316 31.8851 2.13306 32.3939 2.13306ZM25.5224 13.6287L23.0004 11.1067L22.7752 10.8815L29.9536 3.70291L32.9261 6.67539L25.7476 13.8539L25.5224 13.6287ZM22.2828 12.5188L22.664 12.9L21.3049 14.2591C21.0109 14.5531 21.0109 15.0298 21.3049 15.3239C21.452 15.4709 21.6446 15.5445 21.8373 15.5445C22.03 15.5445 22.2227 15.4709 22.3697 15.3239L23.7288 13.9648L24.11 14.346L23.3181 16.3822L18.9383 17.6905L20.2465 13.3107L22.2828 12.5188ZM26.4598 23.1124H2.25878V8.35757H23.1692L21.1778 10.349C20.903 10.6238 20.8852 11.0581 21.1241 11.3538L19.3578 12.0407C19.1412 12.1248 18.9757 12.3043 18.9092 12.5269L17.151 18.4131L16.3994 19.1648L15.5131 18.2785C15.2191 17.9846 14.7424 17.9846 14.4483 18.2785C14.1543 18.5725 14.1543 19.0493 14.4483 19.3434L15.3345 20.2296L14.4483 21.1157C14.1543 21.4098 14.1542 21.8865 14.4483 22.1806C14.5954 22.3276 14.7881 22.4011 14.9807 22.4011C15.1734 22.4011 15.3661 22.3276 15.5131 22.1806L16.3994 21.2943L17.2857 22.1806C17.4327 22.3276 17.6254 22.4011 17.8181 22.4011C18.0107 22.4011 18.2035 22.3276 18.3504 22.1806C18.6445 21.8866 18.6445 21.4098 18.3504 21.1157L17.4643 20.2296L18.2159 19.478L24.1021 17.7197C24.3247 17.6532 24.5041 17.4877 24.5884 17.2712L25.2753 15.5049C25.4128 15.616 25.5802 15.6716 25.7477 15.6716C25.9405 15.6716 26.1331 15.5981 26.2801 15.4511L26.46 15.2712V23.1124H26.4598Z" fill="#173454"/>
<path d="M4.96386 12.2891H16.7784C17.1942 12.2891 17.5313 11.9519 17.5313 11.5361C17.5313 11.1204 17.1942 10.7832 16.7784 10.7832H4.96386C4.54802 10.7832 4.21094 11.1204 4.21094 11.5361C4.21094 11.9519 4.54802 12.2891 4.96386 12.2891Z" fill="#173454"/>
<path d="M15.9709 14.6562C15.9709 14.2405 15.6338 13.9033 15.218 13.9033H4.96386C4.54802 13.9033 4.21094 14.2405 4.21094 14.6562C4.21094 15.072 4.54802 15.4092 4.96386 15.4092H15.218C15.6338 15.4092 15.9709 15.072 15.9709 14.6562Z" fill="#173454"/>
</svg>
